<svg xmlns="http://www.w3.org/2000/svg"
 width="264.944754529629"
  height="87.5" viewBox="0 -12 264.944754529629 87.5" class="css-1j8o68f">
    <defs id="SvgjsDefs3960"></defs>
    <g id="SvgjsG3961" featurekey="sloganFeature-0"
        transform="matrix(0.6355932842643004,0,0,0.6355932842643004,39.067797214606195,61.33898240246209)"
        fill="#114084">
        <path
            d="M10.44 4.539999999999999 l-5.32 0.18 l-2.84 17.56 l-2.28 -0.46 l2.74 -17.02 l-4.36 0.14 l-0.06 -2.32 l12.04 -0.4 z M17.1825 11.1 l-0.72 0.18 l-0.56 8.12 l-2.3 -0.16 l0.48 -7.32 l-3.76 1.02 l-0.42 2.54 l-2.28 -0.38 l1.8 -10.98 l2.28 0.38 l-0.96 5.92 l3.52 -0.94 l0.36 -5.36 l2.32 0.16 l-0.32 4.7 z M22.345 18.74 c-0.9 0 -1.72 -0.4 -2.32 -1.12 c-1 -1.18 -1.32 -3.12 -0.92 -5.32 c0.68 -3.74 2.84 -6.3 5.2 -6.26 c1.1 0.02 2.02 0.44 2.66 1.22 c0.94 1.16 1.22 3.04 0.78 5.46 l0 0 c-0.7 3.96 -3.24 6.02 -5.4 6.02 z M24.244999999999997 8.36 c-0.86 0 -2.3 1.34 -2.86 4.36 c-0.32 1.76 0.02 2.94 0.42 3.42 c0.2 0.24 0.4 0.28 0.54 0.28 c1 0 2.62 -1.28 3.12 -4.1 c0.3 -1.66 0.18 -3 -0.3 -3.58 c-0.14 -0.18 -0.36 -0.36 -0.9 -0.38 l-0.02 0 z M33.9275 18.8 c-0.14 0 -0.28 0 -0.4 -0.02 c-1.04 -0.14 -1.88 -0.62 -2.44 -1.4 c-1.5 -2.06 -0.74 -5.82 -0.1 -9.12 l2.28 0.44 c-0.5 2.56 -1.2 6.08 -0.3 7.32 c0.12 0.18 0.34 0.4 0.86 0.46 c0.36 0.04 0.78 -0.16 1.22 -0.6 c1.88 -1.86 3.18 -6.84 2.74 -10.44 l2.3 -0.28 c0.54 4.34 -1.02 10 -3.4 12.38 c-1.02 1 -2 1.26 -2.76 1.26 z M54.77 9.76 l-2.38 0.9 c-0.04 0.26 -0.1 0.58 -0.18 0.94 l-1.68 10.2 l-2.28 -0.36 l0.74 -4.46 c-0.46 0.32 -0.98 0.6 -1.58 0.8 c-1.48 0.52 -2.92 0.24 -3.94 -0.76 c-1.58 -1.54 -1.94 -4.5 -0.92 -7.52 c1.06 -3.24 3.4 -4.76 5.24 -4.84 c1.42 -0.06 2.6 0.68 3.16 1.96 l-2.14 0.92 c-0.06 -0.14 -0.24 -0.58 -0.92 -0.56 c-1.02 0.04 -2.42 1.08 -3.14 3.24 c-0.8 2.38 -0.42 4.4 0.34 5.14 c0.14 0.16 0.58 0.58 1.56 0.24 c1.84 -0.66 2.74 -2.52 3.16 -3.96 l-2.46 0.94 l-0.84 -2.16 l7.44 -2.82 z M63.91250000000001 11.1 l-0.72 0.18 l-0.56 8.12 l-2.3 -0.16 l0.48 -7.32 l-3.76 1.02 l-0.42 2.54 l-2.28 -0.38 l1.8 -10.98 l2.28 0.38 l-0.96 5.92 l3.52 -0.94 l0.36 -5.36 l2.32 0.16 l-0.32 4.7 z M76.375 4.539999999999999 l-5.32 0.18 l-2.84 17.56 l-2.28 -0.46 l2.74 -17.02 l-4.36 0.14 l-0.06 -2.32 l12.04 -0.4 z M74.97749999999999 18.66 l0.42 -1.92 l2.18 0.38 l-0.4 1.94 z M92.2025 14.68 l3.9 -0.68 l0.4 2.3 l-7.88 1.34 l-0.38 -2.28 l1.46 -0.26 l0.74 -3.08 l-0.36 -2.1 l0.9 -0.16 l0.42 -1.68 l-1.5 0.26 l-0.38 -2.3 l9.14 -1.54 l0.38 2.28 l-5.16 0.88 l-0.4 1.68 l1.84 -0.32 l0.38 2.3 l-2.82 0.48 z M109.865 19.86 l-0.86 -10.3 l-2.82 5.3 l-2.12 -0.14 l-1.64 -4.42 l-1.26 6.88 l-2.28 -0.42 l2 -11.02 l2.24 -0.2 l2.22 5.96 l3.46 -6.52 l2.18 0.46 l1.18 14.22 z M117.3275 18.74 c-0.9 0 -1.72 -0.4 -2.32 -1.12 c-1 -1.18 -1.32 -3.12 -0.92 -5.32 c0.68 -3.74 2.84 -6.3 5.2 -6.26 c1.1 0.02 2.02 0.44 2.66 1.22 c0.94 1.16 1.22 3.04 0.78 5.46 l0 0 c-0.7 3.96 -3.24 6.02 -5.4 6.02 z M119.2275 8.36 c-0.86 0 -2.3 1.34 -2.86 4.36 c-0.32 1.76 0.02 2.94 0.42 3.42 c0.2 0.24 0.4 0.28 0.54 0.28 c1 0 2.62 -1.28 3.12 -4.1 c0.3 -1.66 0.18 -3 -0.3 -3.58 c-0.14 -0.18 -0.36 -0.36 -0.9 -0.38 l-0.02 0 z M135.65 4.539999999999999 l-5.32 0.18 l-2.84 17.56 l-2.28 -0.46 l2.74 -17.02 l-4.36 0.14 l-0.06 -2.32 l12.04 -0.4 z M135.8725 15.86 l-2.28 -0.36 l2.22 -13.06 l2.28 0.38 z M142.915 18.74 c-0.9 0 -1.72 -0.4 -2.32 -1.12 c-1 -1.18 -1.32 -3.12 -0.92 -5.32 c0.68 -3.74 2.84 -6.3 5.2 -6.26 c1.1 0.02 2.02 0.44 2.66 1.22 c0.94 1.16 1.22 3.04 0.78 5.46 l0 0 c-0.7 3.96 -3.24 6.02 -5.4 6.02 z M144.815 8.36 c-0.86 0 -2.3 1.34 -2.86 4.36 c-0.32 1.76 0.02 2.94 0.42 3.42 c0.2 0.24 0.4 0.28 0.54 0.28 c1 0 2.62 -1.28 3.12 -4.1 c0.3 -1.66 0.18 -3 -0.3 -3.58 c-0.14 -0.18 -0.36 -0.36 -0.9 -0.38 l-0.02 0 z M152.3975 18.68 l-2.28 -0.38 l1.9 -11.68 l2.18 -0.34 l3.04 5.94 l2.82 -11.18 l2.24 0.56 l-3.56 14.18 l-2.16 0.24 l-2.84 -5.54 z M163.58 18.66 l0.42 -1.92 l2.18 0.38 l-0.4 1.94 z M180.68500000000003 15.86 l-2.28 -0.36 l2.22 -13.06 l2.28 0.38 z M186.18750000000003 18.68 l-2.28 -0.38 l1.9 -11.68 l2.18 -0.34 l3.04 5.94 l2.82 -11.18 l2.24 0.56 l-3.56 14.18 l-2.16 0.24 l-2.84 -5.54 z M201.59000000000003 10.22 l0.38 2.3 l-2.74 0.46 l-0.8 5.32 l-2.28 -0.34 l0.78 -5.34 l-0.26 -1.56 l0.5 -0.08 l0.32 -2.06 l-0.66 0.12 l-0.42 -2.28 l9.38 -1.72 l0.42 2.28 l-6.32 1.16 l-0.3 2.08 z M208.29250000000002 18.74 c-0.9 0 -1.72 -0.4 -2.32 -1.12 c-1 -1.18 -1.32 -3.12 -0.92 -5.32 c0.68 -3.74 2.84 -6.3 5.2 -6.26 c1.1 0.02 2.02 0.44 2.66 1.22 c0.94 1.16 1.22 3.04 0.78 5.46 l0 0 c-0.7 3.96 -3.24 6.02 -5.4 6.02 z M210.19250000000002 8.36 c-0.86 0 -2.3 1.34 -2.86 4.36 c-0.32 1.76 0.02 2.94 0.42 3.42 c0.2 0.24 0.4 0.28 0.54 0.28 c1 0 2.62 -1.28 3.12 -4.1 c0.3 -1.66 0.18 -3 -0.3 -3.58 c-0.14 -0.18 -0.36 -0.36 -0.9 -0.38 l-0.02 0 z M227.41500000000005 19.7 l-1.72 1.56 l-6.86 -7.54 l-1.08 4.46 l-2.24 -0.54 l2.2 -9.24 c-0.3 0.12 -0.6 0.24 -0.92 0.38 l-0.96 -2.1 c5.1 -2.32 7.4 -1.32 8.32 -0.5 c0.92 0.8 1.24 2 0.86 3.22 c-0.56 1.84 -2.52 2.72 -4.12 3.16 z M220.27500000000003 7.640000000000001 l-0.68 2.84 c1.3 -0.26 2.92 -0.82 3.2 -1.76 c0.08 -0.24 0.1 -0.56 -0.16 -0.8 c-0.36 -0.32 -1.14 -0.48 -2.36 -0.28 z M237.81750000000005 19.86 l-0.86 -10.3 l-2.82 5.3 l-2.12 -0.14 l-1.64 -4.42 l-1.26 6.88 l-2.28 -0.42 l2 -11.02 l2.24 -0.2 l2.22 5.96 l3.46 -6.52 l2.18 0.46 l1.18 14.22 z M252.50000000000006 13.54 l-1.7 0.16 l0.76 6.58 l-2.3 0.26 l-0.76 -6.62 l-3.96 0.36 l-1.82 3.42 l-2.04 -1.08 l1.12 -2.12 l-0.22 -2.26 l1.5 -0.14 l4.46 -8.34 l2.16 0.42 l0.84 7.22 l1.74 -0.18 z M245.86000000000004 11.84 l2.36 -0.24 l-0.4 -3.46 z M264.74250000000006 4.539999999999999 l-5.32 0.18 l-2.84 17.56 l-2.28 -0.46 l2.74 -17.02 l-4.36 0.14 l-0.06 -2.32 l12.04 -0.4 z M264.96500000000003 15.86 l-2.28 -0.36 l2.22 -13.06 l2.28 0.38 z M272.00750000000005 18.74 c-0.9 0 -1.72 -0.4 -2.32 -1.12 c-1 -1.18 -1.32 -3.12 -0.92 -5.32 c0.68 -3.74 2.84 -6.3 5.2 -6.26 c1.1 0.02 2.02 0.44 2.66 1.22 c0.94 1.16 1.22 3.04 0.78 5.46 l0 0 c-0.7 3.96 -3.24 6.02 -5.4 6.02 z M273.9075000000001 8.36 c-0.86 0 -2.3 1.34 -2.86 4.36 c-0.32 1.76 0.02 2.94 0.42 3.42 c0.2 0.24 0.4 0.28 0.54 0.28 c1 0 2.62 -1.28 3.12 -4.1 c0.3 -1.66 0.18 -3 -0.3 -3.58 c-0.14 -0.18 -0.36 -0.36 -0.9 -0.38 l-0.02 0 z M281.49000000000007 18.68 l-2.28 -0.38 l1.9 -11.68 l2.18 -0.34 l3.04 5.94 l2.82 -11.18 l2.24 0.56 l-3.56 14.18 l-2.16 0.24 l-2.84 -5.54 z M292.67250000000007 18.66 l0.42 -1.92 l2.18 0.38 l-0.4 1.94 z">
        </path>
    </g>
    <g id="SvgjsG3962" featurekey="nameLeftFeature-0"
        transform="matrix(1.2857141105496392,0,0,1.2857141105496392,-2.0571421477260388,-15.42856442198557)"
        fill="#114084">
        <path
            d="M1.6 40 l0 -28 l6.52 0 q1.36 0 2.54 0.52 t2.08 1.4 t1.42 2.08 t0.52 2.56 l0 4.36 q0 1.36 -0.52 2.54 t-1.42 2.06 t-2.08 1.4 t-2.54 0.52 l-2.76 0 l0 10.56 l-3.76 0 z M5.36 15.8 l0 9.88 l2.76 0 q1.16 0 1.96 -0.82 t0.8 -1.94 l0 -4.36 q0 -1.16 -0.8 -1.96 t-1.96 -0.8 l-2.76 0 z M22.135 23.4 l4.16 0 l0 3.8 l-4.16 0 l0 9 l6.12 0 l0 3.8 l-9.88 0 l0 -28 l9.88 0 l0 3.8 l-6.12 0 l0 7.6 z M31.950000000000003 40 l0 -28 l3.64 0 l5.6 16.08 l0 -16.08 l3.76 0 l0 28 l-3.6 0 l-5.64 -16.16 l0 16.16 l-3.76 0 z M53.645 12 l3.72 0 l6.6 28 l-3.88 0 l-2.32 -9.76 l-4.52 0 l-2.32 9.76 l-3.88 0 z M56.885000000000005 26.439999999999998 l-1.4 -5.8 l-1.36 5.8 l2.76 0 z">
        </path>
    </g>
    <g id="SvgjsG3963" featurekey="inlineSymbolFeature-0"
        transform="matrix(0.0013664610291966876,0,0,0.0013664610291966876,98.47447753590556,-13.310855473072305)"
        fill="#000000">
        <defs xmlns="http://www.w3.org/2000/svg"></defs>
        <g xmlns="http://www.w3.org/2000/svg">
            <path class="fil0"
                d="M16979.74 30508.44l-7918.03 -8203.73c-446.74,-462.93 -441.53,-1024.76 11.46,-1488.14l-0.53 -0.52c510.88,-527.87 981.53,-991.34 1498.95,-1496.2 -1486.45,-895.03 -3892.87,-2938.3 -5912.8,-5318.69 -1580.25,-1862.23 -2931.3,-3938.28 -3438.22,-5849.67 -213.69,-805.74 -88.07,-1676.44 280.4,-2525.06 431.22,-993.11 1199.41,-1960.69 2142.46,-2753.72 941.48,-791.7 2059.97,-1412.21 3193.66,-1712.87 1093.97,-290.14 2205.46,-285.04 3195.47,144.84 1288.08,559.29 3064.17,1943.61 4839.79,3658.58 1734.61,1675.36 3474.18,3669.8 4758.3,5517.49l1050.54 -1025.04 0.09 0.08c898.45,-890.49 1759.11,-1021.04 2677.85,-99.87l3.63 5.28 6817.18 7150.17 0.11 -0.12c822.93,819.54 867.3,1618.48 69.55,2483.48l-11.38 11.71 -3160 3077.22 397.81 383.68c806.93,-365.44 1822.21,-223.02 2921.5,-68.73l42.1 5.91c2044.44,286.82 3889,674.68 5655.33,1191.99 2476.21,725.22 4803.71,1710.25 7067.77,2917.91 608.64,324.67 1208.3,664.95 1808.55,1004.91 1023.2,579.51 2020.2,1144.17 3096.34,1654.62 334.06,157.48 94.62,665.38 -239.42,507.92 -687.05,-325.9 -1344.03,-674.76 -1996.68,-1035.88 -530.94,-293.75 -415.3,-294.93 -193.67,156.13 85.89,174.83 152.44,350.55 194.52,523.22 87.27,358.04 -457.13,490.73 -544.38,132.69 -281.26,-1154.29 -1406.75,-1925.39 -2405.83,-2457.28 -2222.2,-1183.14 -4516.39,-2155.46 -6943.3,-2866.24 -1738.78,-509.23 -3557.88,-891.51 -5577.21,-1174.8l-42.11 -5.91c-1183.46,-166.12 -2259.31,-317.12 -2931.78,218.91 -350.66,279.53 -577.42,613.52 -848.11,1012.27 -363.44,535.34 -800.68,1179.38 -1700.8,1983.62 -456.02,407.45 -965.14,1129.68 -455.73,1693.7 1038.72,1150.2 3527.51,-64.41 4525.11,-927.63 269.56,-233.23 512.72,-483.24 682.54,-717.73 215.86,-298.21 669.82,30.43 453.97,328.6 -33.26,45.94 -68.7,92.16 -106.03,138.5 921.86,158.38 2536.16,699.22 3701.98,388.96 353.99,-105.83 514.89,432.39 160.92,538.22 -452.28,136.66 -1192.54,86.6 -1675.39,38.35 116.4,89.59 226.44,181.1 328.7,272.49 895.05,46.59 1652.38,651.23 1662.8,1563.17 2.16,185.89 -14.18,129.95 118.99,272.42l185.8 198.78c149.19,159.6 89.07,106.66 301.94,86.51 355.09,-33.63 721.98,20.98 1037.44,168.02 761.15,354.79 1036.37,1124.87 814.13,1893.62 1201.18,765.25 3682.55,901.4 5079.15,771.53 220.32,-19.67 250.21,315.3 29.93,334.97 -1401.13,130.28 -3353.52,25.26 -4683.69,-495.68l4046.67 4329.21c321.28,326.2 408.53,754.39 324.73,1224.73l662.5 654.96c154.78,153.03 236.02,340.72 256.71,550.74 348.76,35.84 1359.34,-398 1550.43,-769.08 169.23,-327.13 667.27,-69.49 498.04,257.65 -209.8,407.47 -463.38,264.53 158.99,419.1 729.55,181.18 1257.19,435.78 1928.77,685.58 345.24,127.81 150.9,652.76 -194.35,524.94 -636.29,-197.41 -1148.23,-486.34 -1868.05,-665.11 -272.86,-67.77 -536.26,-118.7 -758.47,-138.89 -380.68,-34.61 -429.96,38.61 -774.77,143.42 -227.99,69.32 -480.07,126.89 -605.4,99.5 -118.85,403.02 -360.1,791.08 -617.15,1122.81l5897.93 5958.95c259.09,261.66 -139.26,656.08 -398.33,394.43l-5865.23 -5925.91c-132.26,141.03 -270.89,276.35 -415.27,404.93l5774.12 5914.21c257.74,263.17 -142.91,655.57 -400.67,392.39l-5811.5 -5952.49c-548.71,398.73 -1549.25,932.9 -2150.43,344.46l-686.59 -672.04c-537.71,113.36 -1037.09,45.88 -1423.19,-279.46l-16.3 -14.41 -794.95 -779.38c-650.69,-63.66 -1315.29,108.75 -1971.87,279.12 -1729.74,448.81 -3409.47,884.66 -5059.92,-2285.9 -193.29,-371.33 -623.2,-565.81 -1048.16,-758.05 -1198.46,-542.26 -1866.73,-1477.79 -1578.2,-2816.28 -190.35,37.44 -380.11,63.34 -568.38,74.97 -1595.85,98.54 -2773.09,-1710.17 -2088.94,-3106.06 -3174.55,138.29 -3876.59,-2780.55 -614.9,-4065.15l-825.66 -809.49 -2468.52 2403.86c-1.99,1.93 -3.99,3.8 -6.02,5.65l-678.83 681.34 0.26 0.24c-465.89,490.11 -972.72,437.07 -1430.77,-36.45zm4933.52 -6116.76c-158.79,153.83 -393.02,-87.93 -234.2,-241.79l6472.58 -6252.83c158.8,-153.83 393.02,87.93 234.21,241.79l-6472.59 6252.83zm-4631.45 -11673.99c42.03,-146.78 87.83,-310.13 137.42,-490.16 43.01,-156.14 84.01,-307.72 122.97,-454.69 -287.97,-2.71 -578.89,-8.78 -872.54,-18.26 -85.79,316.38 -174.78,631.15 -266.77,944.05 295.97,9.8 589.04,16.15 878.92,19.06zm348.05 -1280.71c81.74,-317.25 160.01,-631.61 234.71,-945.28 -286.12,-2.13 -575.32,-7.58 -867.35,-16.41 -76.15,315.85 -155.6,630.9 -238.27,945.11 293.62,8.94 583.99,14.46 870.91,16.58zm313.38 -1281.18c59.98,-260.69 117.06,-519.58 171.07,-777.65 -44.29,-56.36 -88.89,-112.75 -133.77,-169.15 -227.38,-2.55 -458.74,-7.25 -693.96,-14.15 -66.61,316.14 -136.69,631.53 -210.07,946.15 292.11,8.33 581.07,13.24 866.73,14.8zm441.23 -429.26c-31.1,143.47 -62.97,286.57 -95.55,429.49 139.25,-0.58 277.67,-1.95 415.23,-4.15 -104.32,-141.31 -210.95,-283.17 -319.68,-425.34zm-173.73 766.12c-73.73,311.82 -151.56,626.29 -233.29,945.22 229.19,-0.5 456.07,-3.19 680.51,-8.06l565.1 -551.39c-90.22,-130.88 -182.81,-262.53 -277.58,-394.8 -242.41,5.51 -487.37,8.54 -734.74,9.03zm-320.54 1281.82c-49.72,189.46 -98.33,370.37 -145.77,542.6l-1.54 5.6 564.29 -550.6c-138.24,1.6 -277.25,2.4 -416.98,2.4zm-2430.07 2775.52c29.47,-85.62 58.76,-171.54 87.84,-257.76 -331.92,-16.01 -667.17,-36.27 -1005.43,-60.87 -108.12,316.69 -218.86,629.32 -332.08,937.64 192.5,14.47 384.17,27.58 574.98,39.3l674.69 -658.31zm198.17 -589.19c102.82,-313.05 202.17,-627.27 298.05,-942.53 -330.28,-14.63 -664.2,-33.5 -1001.43,-56.7 -97.75,316.88 -198.27,630.46 -301.41,940.54 338.4,23.92 673.43,43.46 1004.79,58.69zm397.82 -1275.22c91.69,-310.09 181.07,-624.71 268.02,-943.69 -332.42,-13.66 -664.66,-31.49 -996.65,-53.33 -87.87,317.11 -178.59,631.33 -272,942.5 336.8,22.5 670.44,40.66 1000.63,54.52zm357.63 -1277.24c83.15,-314.15 163.07,-629.14 239.62,-944.97 -327.09,-12.77 -657.8,-29.74 -991.8,-50.97 -77.79,315.71 -158.95,630.51 -243.47,944.48 331.65,21.21 663.57,38.41 995.65,51.46zm319.2 -1278.67c73.8,-314.67 144.31,-630.12 211.48,-946.27 -266.53,-10.01 -529.7,-22.41 -789.26,-37.25 -76.88,46.08 -153.65,93.08 -230.3,140.98 -58.54,264.95 -119.61,529.32 -182.7,793.22 333.59,20.7 663.96,37.12 990.78,49.32zm281.16 -1280.33c13.4,-65.49 26.62,-130.84 39.66,-196.06 -118.16,58.69 -236.21,119.77 -354.1,183.19 106.15,4.77 210.97,9.07 314.44,12.87zm408.33 -324.36c-21.78,111.74 -43.99,223.51 -66.67,335.3 116.69,3.2 233.41,5.85 350.15,7.97 -93.44,-114.52 -187.96,-228.99 -283.48,-343.27zm-1118.95 4507.15c-95.3,315.45 -194.01,629.87 -296.17,943.16l40.3 1.47 949.23 -926.18c-229.15,-4.03 -460.31,-10.18 -693.36,-18.45zm-2931.37 3369.79c124.94,-306.21 247.38,-617.25 367.15,-932.87 -328.32,-28.29 -659.97,-60.64 -994.73,-97.14 -119.17,311.49 -242.14,621.46 -368.95,929.6 331.09,37.17 663.3,70.66 996.53,100.41zm489.93 -1260.56c113.96,-308.08 225.37,-620.37 334.04,-936.61 -331.34,-26.8 -662.37,-57.48 -993,-91.88 -108.3,312.66 -220.38,623.72 -335.72,933.84 333.61,35.63 665.26,67.16 994.68,94.65zm445.45 -1265.13c103.56,-309.4 204.59,-622.73 302.91,-939.77 -327.41,-25.2 -657.78,-54.43 -990.82,-87.77 -98.06,313.36 -199.65,625.98 -304.8,937.53 330.55,33.78 661.47,63.85 992.71,90.01zm403.81 -1269.6c93.74,-310.63 184.89,-624.71 273.29,-942.03 -326.32,-24.15 -655.77,-52.33 -988.09,-84.61 -88.42,314 -180.29,627.65 -275.63,940.62 330.12,32.51 657.68,60.96 982.4,85.42l8.03 0.6zm364.19 -1273.07c84.95,-313.88 166.64,-628.67 245.19,-944.22 -285.59,-20.48 -573.48,-44.06 -863.5,-70.75 -51.81,40.36 -103.54,81.06 -155.15,122.08 -68.88,270.09 -140.23,540.15 -214.1,810 331.75,31.7 661.04,59.31 987.56,82.89zm326.38 -1275.73c40.68,-169.72 80.59,-339.54 119.38,-509.7 -222.99,149.02 -444.76,305.21 -664.99,467.77 182.74,15.22 364.63,29.2 545.61,41.93zm-1313.68 5439.84c-79.53,211.16 -160.23,420.21 -242.04,627.12l614.67 -599.76c-123.7,-8.52 -247.9,-17.65 -372.63,-27.36zm-3241.36 3332.74c168.62,-331.32 332.21,-666.26 490.83,-1004.4 -329.36,-42.71 -658.24,-89.04 -986.61,-138.76 -97.83,208.31 -196.79,413.75 -296.77,616.23 285.4,204.59 551.55,381.45 792.55,526.93zm639.12 -1324.57c139.5,-305.12 275.01,-612.7 406.62,-922.45 -329.92,-40.5 -659.41,-84.59 -988.37,-132.22 -132.77,311.54 -268.06,617.66 -405.67,918.1 328.63,49.12 657.8,94.65 987.42,136.57zm541.83 -1244.75c127.38,-307.52 250.94,-617.04 370.74,-928.25 -329.98,-38.54 -659.53,-80.7 -988.6,-126.43 -119.9,309.69 -243.48,617.93 -370.97,924.58 329.13,46.99 658.75,90.41 988.83,130.1zm494.03 -1252.65c116.15,-309.55 228.55,-620.48 337.31,-932.69 -326.92,-36.58 -656.12,-77.04 -987.33,-121.46 -110.31,314.1 -223.22,624.02 -338.57,929.55 329.08,45.13 658.61,86.69 988.59,124.6zm449.42 -1258.7c105.62,-311.19 207.64,-623.49 306.14,-936.65 -325.93,-35.18 -654.28,-74.28 -984.82,-117.32 -100.15,315.09 -202.95,626.54 -308.27,934.11 331.28,43.93 660.34,83.87 986.95,119.86zm407.76 -1264.15c95.73,-312.7 187.96,-626.15 276.77,-940.04 -189.38,-19.88 -379.65,-41.08 -570.76,-63.61 -199.26,182.55 -395.57,368.25 -589.1,556.85 -33.38,110.76 -67.08,221.1 -101.1,331.01 330.27,42.55 658.42,81.13 984.19,115.79zm368.48 -1268.81c37.99,-138.12 75.3,-276.3 111.96,-414.54 -147.85,124.06 -294.71,250.59 -440.48,379.31 109.76,12.19 219.27,23.92 328.52,35.23zm-1506.63 5408.01c-130.89,310.13 -265.76,618.3 -404.61,924.2 164.76,19.64 329.07,38.31 492.89,55.99l899.66 -877.83c-328.87,-30.31 -658.21,-64.45 -987.94,-102.36zm-552.26 1245.35c-105.36,226.28 -212.96,451.24 -322.8,674.78l651.76 -635.94c-109.35,-12.5 -219,-25.45 -328.96,-38.84zm2940.95 -10483.86c58.32,-316.42 113.17,-633.53 164.56,-951.16 -320,-32.38 -642.17,-68.51 -966.28,-108.45 -52.66,317.92 -108.88,635.25 -168.5,951.95 323.84,39.54 647.35,75.41 970.22,107.66zm217.17 -1284.37c17.11,-111.21 33.63,-221.59 49.57,-331.12 -243.07,-241.89 -489.31,-480.61 -738.82,-715.85 -45.51,-5.52 -91.01,-11.1 -136.47,-16.75 -42.28,315.61 -88.73,634.26 -139.38,955.65 324.16,39.86 645.95,75.87 965.1,108.07zm345.53 -33.47l-10.03 66.01 82.28 7.58c-24.08,-24.58 -48.16,-49.1 -72.25,-73.59zm-62.33 399.38c-45.19,280.7 -93.35,560.9 -144.25,840.63 312.35,-186.85 618.51,-354.92 915.65,-501.28 -93.04,-99.36 -186.45,-198.13 -280.16,-296.25 -163.11,-13.39 -326.87,-27.75 -491.24,-43.1zm-5351.47 11633.72c75.86,-154.33 151.13,-310.39 225.76,-468.16 -323.7,-51.49 -648.2,-106.58 -973.21,-165.29l-16.62 35.05c264.25,216.04 520.03,416.17 764.07,598.4zm373.92 -785.38c138.17,-299.63 274.06,-605.12 407.44,-916.18 -325.6,-49.64 -650.7,-102.75 -975.23,-159.21 -133.26,310.1 -268.68,614.11 -406.06,911.74 327.07,58.47 651.76,113 973.85,163.65zm542.74 -1235.63c128.02,-306.12 252.06,-613.82 372.47,-923.01 -323.53,-47.43 -648.93,-98.59 -975.94,-153.57 -121.32,310.47 -245.45,616.94 -372.18,919.09 324.64,55.93 649.89,108.46 975.65,157.49zm496.24 -1244.91c115.87,-305.21 229.26,-614.72 339.97,-928.27 -232.69,-32.96 -466.33,-67.87 -700.83,-104.74 -172.64,197.83 -342,396.8 -507.85,596.23 -35.53,95.28 -71.32,190.18 -107.36,284.75 327.05,54.49 652.48,105.14 976.07,152.03zm452.89 -1252.13c105.8,-307.37 209.02,-618.48 309.52,-933.13l-58.53 -8.09c-272.98,282.48 -539.96,570.09 -800.11,860.83 183.65,28.01 366.7,54.81 549.12,80.39zm1419.77 -5067.48c69.78,-318.15 135.56,-634.47 197.42,-948.73 -322.18,-42.11 -643.93,-87.53 -965.18,-136.27 -63.26,316.61 -129.98,632.65 -200.08,947.97 328.93,50.05 651.6,95.7 967.84,137.03zm261.22 -1279.46c59.85,-316.76 116.21,-634.21 168.93,-952.25 -318.4,-41.62 -638.95,-86.97 -961.45,-136.05 -53.69,318.12 -110.98,635.64 -171.77,952.48 320.93,48.72 642.38,94.05 964.29,135.82zm222.73 -1284.99c50.57,-320.75 97.01,-639.52 139.37,-956.03 -319.63,-42.05 -638.8,-87.46 -957.47,-136.28 -43.77,319.47 -91.28,638.38 -142.41,956.63 321.84,48.91 642.08,94.12 960.51,135.68zm182.64 -1289.69l0.31 -2.55c-296.44,-270.35 -590.48,-528.82 -879.65,-772.96 -23.98,213.15 -49.67,426.1 -77.03,638.84 318.28,48.88 637.14,94.43 956.37,136.67zm-134.93 2947.86c-47.64,242.9 -97.56,486.7 -149.75,731.25 309.04,-227.94 616.57,-443.08 920.16,-642.93 -254.21,-26.9 -511.04,-56.33 -770.41,-88.32zm-4759.48 9480.17c138.58,-298.16 274.6,-601.49 407.85,-909.66 -89.52,-16.24 -178.99,-32.72 -268.4,-49.47 -206.11,283.76 -403.27,564.8 -590.68,841.23l47 40.78c134.66,26.12 269.42,51.81 404.23,77.12zm543.23 -1226.71c82.86,-196.51 164.81,-395.47 245.82,-596.84 -146.42,188.42 -289.34,376.47 -428.53,563.63 60.88,11.19 121.79,22.26 182.71,33.21zm1960.02 -5794.85c12.37,-46.94 24.69,-93.93 36.91,-140.93 -322.17,-52.03 -643.8,-107.41 -964.84,-166.06 -81.28,310.47 -166.69,622.96 -256.05,937.16 141.86,26.16 283.68,51.64 425.37,76.41 126.25,-121.48 253.57,-242.03 381.8,-361.41 124.79,-116.18 250.45,-231.3 376.81,-345.17zm120.9 -468.54c79.1,-313.25 155.07,-627.71 227.74,-943.25 -316.92,-50.75 -638.09,-105.58 -963.31,-164.53 -72.61,313.14 -148.91,627.37 -228.96,942.46 320.93,58.44 642.46,113.58 964.53,165.32zm302.35 -1272.73c70.09,-314.97 136.89,-630.96 200.27,-947.87 -319.87,-50.88 -640.42,-105.27 -961.42,-163.18 -63.47,314.43 -130.75,630.3 -201.83,947.4 319.8,57.79 640.88,112.33 962.98,163.65zm265.02 -1278.18c60.87,-316.87 118.23,-634.4 172.01,-952.55 -317.82,-50.71 -637.42,-105.05 -958.59,-163.05 -54.58,318.09 -112.66,635.56 -174.17,952.39 322.7,58.22 643.02,112.61 960.75,163.21zm226.83 -1284.84c51.24,-318.66 98.82,-637.72 142.57,-957.04 -315.94,-50.76 -634.28,-105.2 -954.78,-163.4 -44.39,316.5 -92.89,635.78 -145.54,957.6 320.54,57.91 639.87,112.17 957.75,162.84zm186.93 -1291.08c36.17,-281.4 69.35,-562.96 99.46,-844.61 -61.99,-50.73 -123.72,-100.74 -185.13,-150 -87.18,-14.47 -169.8,-28.43 -247.78,-41.87 -157.35,-27.11 -325.65,-57.12 -505.01,-90.01 -34.08,317.8 -72.48,638.96 -115.24,963.18 318.53,57.93 636.51,112.34 953.7,163.31zm-419.88 4235.73c-72.53,315.3 -148.37,629.84 -227.41,943.49l14.09 2.15c333.26,-288.29 669.78,-566.63 1006.46,-831.86 -266.09,-35.8 -530.54,-73.72 -793.14,-113.78zm-2575.62 3183.52c98.75,-311.91 193.42,-622.35 283.84,-930.99 -319.37,-61.55 -639.01,-126.62 -958.59,-195.24 -91.9,312.92 -186.53,622.79 -283.72,929.44 316.47,68.44 636.01,134.07 958.47,196.79zm377.72 -1256.16c86.62,-304.47 171.92,-616.7 255.79,-936.57 -321.94,-61.16 -641.29,-125.26 -957.86,-192.2 -82.72,314.13 -168.22,625.58 -256.41,934.2 319.53,68.41 639.14,133.27 958.48,194.57zm340.22 -1263.25c80.31,-315.41 156.78,-629.5 229.46,-942.03 -321.6,-60.61 -640.64,-124.16 -956.92,-190.54 -72.98,312.35 -149.7,626.03 -230.19,940.82 316.46,66.8 635.73,130.77 957.65,191.75zm304.57 -1270.5c71.37,-317.5 138.81,-633.3 202.32,-947.18 -321.18,-60.3 -639.75,-123.52 -955.55,-189.54 -63.95,313.88 -131.74,629.44 -203.38,946.47 316.12,66.29 635.06,129.75 956.61,190.25zm267.83 -1277.46c61.61,-316.81 119.81,-634.32 174.28,-952.44 -320.6,-60.22 -638.5,-123.34 -953.55,-189.21 -54.64,315.38 -113.23,632.85 -175.8,952.18 315.69,66.03 634.1,129.24 955.07,189.47zm229.85 -1284.59c52.48,-321.46 100.83,-640.88 145.05,-957.96 -319.77,-60.38 -636.78,-123.6 -950.88,-189.57 -44.91,317.06 -93.93,636.52 -147.05,958.14 315.05,66.02 632.74,129.2 952.88,189.39zm190.23 -1292.09c42.44,-323.95 80.56,-645.34 114.39,-963.84 -318.68,-60.78 -634.62,-124.4 -947.66,-190.75 -34.64,318.68 -73.58,640.32 -116.8,964.6 314.17,66.22 630.94,129.58 950.07,189.99zm148.61 -1300.09c7.89,-81.05 15.5,-161.93 22.83,-242.58 -319.25,-222.4 -624.66,-416.99 -911.87,-579.25 -17.35,208.75 -36.57,418.94 -57.7,630.5 313.03,66.63 628.69,130.44 946.74,191.33zm340.13 -15.73l-7.58 78.14 20.74 3.82c42.37,7.77 85.51,15.62 129.39,23.53 -47.76,-35.71 -95.28,-70.86 -142.55,-105.49zm-1583.45 8091.59c-36.78,126 -73.76,250.74 -110.9,374.23 109.89,-111.77 220.92,-223.04 332.95,-333.65 -74,-13.34 -148.01,-26.87 -222.05,-40.58zm-3219.17 4180.05c108.89,-258.65 216.06,-521.09 321.4,-787.15 -317.48,-74.32 -632.86,-151.75 -945.88,-232.1 -66.04,167.17 -132.84,333.06 -200.36,497.6 186.86,200.39 375.11,396.99 563.82,589.26 73.02,17.93 127.75,31.27 163.5,39.85l26.64 6.35c23.27,-37.78 46.89,-75.73 70.88,-113.81zm445.45 -1104.35c115.94,-300.18 229.55,-604.8 340.65,-913.64 -318.9,-73.03 -635.06,-149 -948.28,-227.78 -110.43,307.34 -223.45,610.87 -338.92,910.37 311.14,79.55 626.72,156.62 946.55,231.05zm454.32 -1233.63c107.29,-305.82 211.14,-612.87 311.57,-921.02 -319.54,-71.84 -636.23,-146.6 -949.89,-224.15 -100.11,307.25 -203.54,613.4 -310.42,918.36 312.64,78.32 628.96,153.96 948.74,226.81zm415.21 -1243.18c97.21,-306.15 191.92,-615.86 283.97,-928.91 -317.08,-70.51 -633.99,-144.54 -950.42,-222.09 -91.92,312.38 -186.54,621.67 -283.72,927.69 313.32,77.2 630.11,151.67 950.17,223.31zm378.02 -1253.22c88.11,-308 173.63,-619.16 256.43,-933.27 -319.98,-70.08 -637.03,-143.03 -950.9,-218.73 -82.61,312.88 -167.98,623.05 -255.97,930.34 316.4,77.42 633.32,151.3 950.44,221.66zm341.15 -1259.37c80.52,-314.59 157.25,-628.12 230.25,-940.4 -319.88,-69.53 -636.83,-141.96 -950.66,-217.14 -73.09,311.84 -149.89,624.94 -230.43,939.06 313.82,75.64 630.83,148.51 950.84,218.48zm305.68 -1268.52c71.62,-316.91 139.37,-632.41 203.27,-946.28 -319.66,-69.23 -636.36,-141.33 -949.9,-216.16 -64.14,313.59 -132.07,628.8 -203.85,945.39 313.71,75.15 630.61,147.55 950.48,217.05zm269.22 -1276.55c62.5,-319.27 121.01,-636.77 175.55,-952.19 -319.34,-69.16 -635.63,-141.16 -948.67,-215.87 -54.87,315.31 -113.67,632.62 -176.43,951.71 313.48,74.93 630.05,147.09 949.55,216.35zm231.72 -1284.71c53.07,-321.94 101.98,-641.48 146.74,-958.34 -318.88,-69.37 -634.62,-141.54 -947.05,-216.4 -45.18,317.12 -94.48,636.66 -147.89,958.34 313.12,74.97 629.26,147.14 948.2,216.4zm192.62 -1293.19c43.14,-324.74 81.9,-646.52 116.29,-965.06 -318.2,-69.85 -633.29,-142.49 -945.06,-217.83 -34.94,319.04 -74.18,641.06 -117.73,965.73 312.61,75.22 628.18,147.65 946.5,217.16zm151.21 -1302.28c24.36,-245.97 46.11,-489.9 65.23,-731.67 -304.45,-152.75 -598.09,-268.67 -933.31,-341.92 -21.95,282.3 -47.39,567.35 -76.36,854.92 311.88,75.7 626.77,148.63 944.44,218.67zm-1643.18 9332.96c-100.35,308.5 -204.05,615.88 -311.16,922.09 129.9,28.59 260.36,56.73 391.35,84.39 235.46,-278.51 481.78,-558.08 736.93,-836.6 -274.24,-54.48 -546.66,-111.13 -817.12,-169.88zm-424.66 1242.49c-87.77,244.67 -177.14,486.82 -268.05,726.37 167.97,-221.2 344.63,-444.72 528.91,-669.42 -87.14,-18.76 -174.1,-37.74 -260.86,-56.95zm-2193.17 1148.84c41.68,-102.74 83.09,-206.06 124.23,-309.97 -177.54,-47 -353.81,-94.83 -528.77,-143.47 133.62,152.89 268.59,304.1 404.54,453.44zm247.74 -625.76c115.32,-298.5 228.37,-601.57 339,-908.97 -313.73,-81.4 -626.57,-166.17 -938.44,-254.45 -109.7,305.83 -221.89,607.68 -336.38,905.32 308.67,88.85 620.69,174.95 935.82,258.1zm452.27 -1227.66c106.92,-304.58 210.42,-610.36 310.58,-917.22 -316.93,-80.86 -630.66,-164.57 -940.92,-250.97 -100.38,308.34 -203.31,613.16 -308.66,914.26 312.05,88.12 625.07,172.76 939,253.93zm414 -1238.26c97.19,-305.64 191.87,-614.78 283.87,-927.22 -314.78,-79.65 -628.96,-162.81 -942.25,-249.5 -91.71,311.99 -186.07,620.78 -282.95,926.19 309.93,86.21 623.78,169.76 941.33,250.53zm377.93 -1250.99c87.88,-306.72 173.17,-616.53 255.77,-929.23 -318.02,-79.2 -632.67,-161.21 -943.74,-245.92 -82.19,311.45 -167.07,620.11 -254.51,925.81 313.32,86.66 627.58,169.75 942.48,249.34zm340.57 -1255.01c80.54,-314.04 157.31,-626.98 230.33,-938.58 -319.24,-78.97 -635.12,-160.77 -947.43,-245.3 -72.15,311 -147.98,623.65 -227.48,937.75 311.3,84.8 626.23,166.88 944.58,246.13zm305.94 -1266.62c71.74,-316.59 139.63,-631.72 203.64,-945.14 -320.04,-78.89 -636.67,-160.61 -949.65,-245.06 -63.57,312.91 -130.9,627.83 -202.05,944.55 312.45,84.65 628.53,166.59 948.06,245.65zm269.87 -1275.75c62.68,-319.17 121.35,-636.5 176.05,-951.68 -320.42,-78.98 -637.3,-160.79 -950.43,-245.3 -54.55,314.77 -113.02,631.97 -175.48,951.37 313.1,84.66 629.8,166.58 949.86,245.61zm232.53 -1285.01c53.26,-322 102.36,-641.6 147.32,-958.56 -317.57,-78.6 -634.28,-160.62 -950.03,-246.21 -45.17,317.14 -94.37,636.79 -147.62,958.7 313.34,84.84 630.21,166.91 950.33,246.07zm193.56 -1294.53c43.37,-325.13 82.35,-647.31 116.96,-966.27 -319.8,-79.81 -636.06,-162.44 -948.49,-247.7 -35.14,319.35 -74.51,641.75 -118.15,966.92 315.64,85.84 632.23,168.17 949.68,247.05zm152.18 -1304.77c27.84,-279.59 52.29,-556.55 73.38,-830.72 -315.12,-39.97 -638.66,-42.14 -965.73,-10.85 -16.85,196.31 -35.33,393.91 -55.48,592.78 312.49,85.75 628.51,168.74 947.83,248.79zm-3948.42 10913.48c96.98,-254.15 192.22,-511.37 285.69,-771.51 -313.23,-91.34 -622.78,-185.49 -928.45,-282.31 -19.23,53.83 -38.56,107.56 -57.95,161.19 225.15,300.93 459.55,599 700.71,892.63zm398.49 -1089.44c105.33,-300.63 208.23,-605.03 308.58,-913 -314.49,-90.22 -625.13,-183.21 -931.67,-278.81 -99.28,306.07 -201.37,609.45 -306.1,909.91 305.25,96.52 615.05,190.53 929.19,281.9zm411.67 -1233.47c96.9,-305.28 191.27,-613.91 282.96,-925.7 -312.37,-89.03 -623.75,-181.64 -933.82,-277.8 -90.51,309.23 -184.23,617.53 -281.32,924.76 306.56,95.55 617.36,188.52 932.18,278.74zm376.8 -1249.27c87.35,-305.31 172.1,-613.54 254.14,-924.52 -313.13,-87.86 -625.26,-179.2 -936.32,-274.16 -81.5,310.07 -165.55,617.04 -252.03,920.73 310.11,96.21 621.62,188.85 934.21,277.95zm338.42 -1250.45c79.27,-313.53 154.91,-626.04 226.96,-937.31 -312.59,-87.17 -624.18,-177.83 -934.71,-272.05 -72.44,310.53 -148.56,622.28 -228.37,935.03 310.97,95.06 623.06,186.45 936.12,274.33zm301.76 -1265.86c70.81,-316.24 137.88,-631.12 201.26,-944.4 -312.01,-86.77 -623.07,-176.99 -933.04,-270.78 -63.65,312.79 -131.06,627.16 -202.28,942.87 310.29,94.34 621.69,185.08 934.06,272.31zm267.03 -1275.81c61.26,-314.72 118.77,-627.76 172.55,-938.85l2.16 -12.56c-314.34,-87.46 -625.09,-177.74 -932.03,-270.68 -54.93,317.55 -113.39,634.49 -175.26,950.77 309.81,94 620.71,184.4 932.58,271.32zm231.09 -1285.84c53.08,-322.34 102.04,-642.11 146.91,-959.03 -314.13,-87.77 -624.78,-178.4 -931.74,-271.73 -44.87,317.39 -93.84,637.3 -146.96,959.4 306.44,93.05 617.12,183.55 931.79,271.36zm193.26 -1296.18c43.41,-325.74 82.44,-648.33 117.17,-967.52 -314.74,-88.54 -625.49,-179.79 -932.02,-273.58 -34.62,319.91 -73.57,642.87 -116.88,968.6 306.27,93.4 616.91,184.27 931.73,272.5zm152.68 -1307.73c15.3,-152.98 29.57,-305.15 42.85,-456.47 -294.86,48.39 -585.31,121.34 -869.43,213.63 272.5,83.08 548.09,164.06 826.58,242.84zm-3522.61 9779.84c103.99,-298.5 205.86,-601.46 305.43,-908.71 -311.9,-100.06 -619.38,-202.85 -922.21,-308.16 -50.25,156.17 -101.13,311.34 -152.62,465.49 133.8,212.34 273.79,424.4 419.15,635.64 116.03,38.95 232.8,77.53 350.25,115.74zm407.92 -1229.09c96.99,-307.09 190.72,-615.19 281.19,-924.26 -309.93,-98.89 -618.43,-201.36 -925.2,-307.44 -89.67,308.73 -182.65,616.51 -278.84,923.28 302.86,105.39 610.57,208.25 922.85,308.42zm374.67 -1248.03c86.56,-303.99 170.44,-610.48 251.51,-919.27 -314.02,-98.65 -623.63,-200 -928.58,-303.93 -80.45,308.33 -163.39,613.48 -248.7,915.29 306.85,106.25 615.56,208.88 925.77,307.91zm335.91 -1245.53c79.69,-312.72 155.62,-624.28 227.85,-934.47 -314.68,-98.27 -625.04,-199.32 -930.83,-302.97 -71.7,310 -147.01,621.02 -225.96,932.82 305.02,104.18 614.76,205.78 928.94,304.62zm303.2 -1263.51c71.08,-315.79 138.28,-630.07 201.64,-942.6 -315.32,-98.19 -626.3,-199.16 -932.67,-302.71 -62.98,312.56 -129.7,626.51 -200.14,941.57 305.71,103.87 616.17,205.17 931.17,303.74zm267.69 -1274.87c61.61,-316.3 119.79,-633.26 174.4,-950.84 -315.55,-98.36 -626.93,-199.55 -933.85,-303.4 -53.82,314.54 -111.63,631.46 -173.42,950.5 306.3,103.89 617.34,205.2 932.87,303.74zm230.73 -1286.3c52.82,-322.41 101.44,-642.46 145.91,-959.87 -315.7,-98.81 -627.35,-200.46 -934.64,-304.81 -44.24,317.31 -92.65,637.52 -145.26,960.33 306.49,104.05 617.9,205.55 933.99,304.35zm191.86 -1298.24c43.73,-332.44 82.87,-661.85 117.45,-987.89 -4.36,-4.28 -8.46,-8.76 -12.31,-13.45 -355.07,145.31 -704.2,321.44 -1041.34,522.87l1.5 172.46c306.51,104.58 618.16,206.63 934.7,306.01zm-3111.95 7717.49c21.85,-66.82 43.58,-133.8 65.17,-200.93 -76.89,-27.48 -153.48,-55.15 -229.73,-82.97 53.47,94.6 108.36,189.25 164.56,283.9zm167.01 -521.68c96.08,-306.56 188.83,-614.17 278.37,-922.7 -307.53,-109.32 -613.18,-222.28 -916.62,-338.95 -55.88,194.52 -112.46,386.68 -169.66,576.44 73.22,157.6 151.06,315.75 233.17,474.26 189.46,71.32 381.07,141.65 574.74,210.95zm371.24 -1247.11c84.22,-298.37 165.85,-599.02 244.74,-901.75l3.13 -12.06c-312.01,-109.33 -618.93,-221.33 -920.49,-335.84 -78.46,304.11 -160.05,607.37 -244.66,909.83 303.54,116.97 609.41,230.22 917.28,339.82zm331.8 -1241.06c78.88,-312.2 153.97,-623.01 225.32,-932.2 -312.96,-109.09 -620.96,-220.9 -923.68,-335.28 -70.67,309.47 -144.87,619.7 -222.62,930.47 301.67,114.93 608.75,227.33 920.98,337.01zm300.23 -1262.34c70.37,-315.6 136.8,-629.42 199.33,-941.24 -313.93,-109.13 -622.84,-220.98 -926.41,-335.4 -62.38,314.07 -128.12,627.48 -197.13,940.16 302.65,114.75 610.83,226.95 924.21,336.48zm264.94 -1275.04c61.34,-318.55 118.71,-635.52 172.13,-950.65 -314.45,-109.44 -624.04,-221.66 -928.47,-336.5 -52.86,314.73 -109.66,631.56 -170.42,950.24 303.53,114.91 612.55,227.27 926.76,336.91zm227.87 -1287.62c52.01,-322.43 99.89,-642.81 143.66,-960.88l-154.42 -60.66c-206.99,145.29 -407.76,299.78 -600.66,461.99 -92.56,77.85 -183.27,157.44 -271.98,238.62 289.39,109.31 583.95,216.34 883.4,320.93zm-2512.83 5148.69c21.42,-73.29 42.64,-146.57 63.65,-219.85 -58.74,-23.19 -117.37,-46.53 -175.92,-70 35.45,96.28 72.9,192.91 112.27,289.85zm155.69 -545.51c84.13,-302.03 165.15,-604.96 243.21,-908.62 -278.5,-108.75 -552.26,-219.62 -821,-332.5 -10.17,268.5 16.1,531.37 83.24,784.51 25.59,96.52 53.62,193.57 83.78,291.05 136.39,55.96 273.32,111.14 410.77,165.56zm326.51 -1237.53c77.76,-311.7 151.65,-621.69 221.74,-929.76 -283.75,-110.23 -562.65,-222.7 -836.49,-337.28 -123.7,305.08 -211.06,610.95 -256.24,912.11 284.68,120.63 575.11,238.99 870.99,354.93zm295.95 -1261.6c68.66,-312.59 133.97,-625.94 195.91,-939.92 -163.63,-63.42 -325.66,-127.56 -486.01,-192.44 -186.7,268.01 -349.42,542.59 -483.86,819.84 253.53,105.99 511.59,210.2 773.96,312.52zm260.85 -1275.92c43.63,-230.52 85.15,-460.01 124.58,-688.39 -167.15,178.9 -324.28,363.32 -469.86,551.82 114.25,45.89 229.35,91.41 345.28,136.57zm26237.84 22577.26c-319.02,288.08 -676.33,557.4 -1046.14,776.04 174.14,373.85 333.26,1020.27 257.31,1406.59 800.45,-435.62 2219.69,-1252.32 3066.85,-1449.77 -603.67,-438.07 -1499.24,-890.29 -2278.02,-732.86zm157.1 11117.06c-214.33,299.56 -670.36,-26.74 -456.04,-326.28 99.85,-139.47 205.42,-272.16 315.61,-398.74 -376.46,157.47 -760.08,325.74 -1160.96,409.27 219.66,153.24 411.78,344.41 549.22,608.44 1443.33,2772.66 2911.61,2391.68 4423.6,1999.37 504.15,-130.82 1012.69,-262.71 1534.61,-300.4l-1320.24 -1294.4c-309.33,259.3 -672.92,647.69 -737.82,1060.56 -57.15,364.03 -610.68,277.16 -553.53,-86.9 100.82,-641.24 624.35,-1180.41 1122.55,-1556.21 982.26,-740.95 2176.84,-1774.24 2841.99,-2815.99 488.24,-764.65 203.51,-1735.44 -801.27,-1592.2 -440.71,62.83 -794.34,400.73 -1147.13,675.42 -890.55,693.46 -1811.94,1266.55 -2691.91,1884.91 -717.36,504.1 -1400.98,1010.11 -1918.68,1733.15zm4266.2 -4061.3c762.88,-593.97 1937.09,-1386.37 2214.82,-2362.7 137.79,-484.34 55.7,-985.03 -493.43,-1240.98 -799.4,-372.6 -1929.39,212.96 -2588.93,682.54 -2016.65,1435.62 -4337.22,3074.2 -6641.78,3795.43 -312.9,829.6 -81.91,1795.82 762.89,2234.05 809.4,245.92 1353.55,33.05 2058.54,-262.28 760.91,-318.73 1408.28,-639.05 2015.58,-990.13 899.06,-519.72 1710.34,-1106.86 2672.31,-1855.93zm1835.53 -790.96c1298.74,157.41 1559.51,1465.07 929.35,2452.04 -651.64,1020.61 -1746,2004.44 -2698.02,2749.4l1767.42 1732.83c4.24,3.9 8.36,7.94 12.33,12.09l851.33 834.67c260.93,213.32 623.78,239.36 1029.16,135.08 800.26,-342.12 1592.98,-860.61 2246.6,-1544.91 400.99,-419.82 1534.15,-1794.71 870.99,-2465.46l-4370.74 -4675.85c-178.46,282.05 -401.23,536.31 -638.42,770.11zm-2082.88 -4010.85c9.07,-897.68 -929.12,-1152.78 -1676.78,-992.72 -943.29,201.95 -2227.19,920.57 -3122.59,1451.7 -547.93,325.04 -900.67,676.16 -1397.58,984.21 -1356.03,798.21 -3358.51,946.49 -3760.86,1518.03 -517.23,734.73 95.19,2480.39 1460.33,2391.23 2338.68,-144.41 5567.3,-2437.17 7550.95,-3934.43 463.19,-349.62 940.24,-797.95 946.53,-1418.02zm-9685.09 2124.37c1012.25,-264.29 2306.39,-609.04 3192.32,-1158.26 961.22,-595.89 1155.1,-1144.07 781,-2181.04 -1021.46,498.57 -2564.12,883.08 -3590.31,182.02 -175.23,-119.75 -94.05,-98.31 -318.96,-64.05 -475.23,72.47 -942.6,200.41 -1390.63,381.54 -3046.66,1231.69 -1580.67,3598.83 1326.58,2839.79zm-137.32 -3757.41c-364.99,-794.8 141.06,-1610.76 731.59,-2138.39 850.94,-760.29 1265.66,-1371.17 1610.39,-1878.96 284.09,-418.47 523.98,-771.76 913.25,-1094.98l-311.85 -300.78 -4710.78 4587.38 1018.1 998.17c246.83,-71.79 497.09,-129.37 749.3,-172.44zm22665.27 7494.78c-91.83,201.15 -397.65,61.53 -305.83,-139.61 270.2,-590.29 330.49,-1354.95 339.77,-1998.23 2.79,-221.66 339.88,-217.44 337.08,4.28 -9.98,693 -80.03,1497.89 -371.02,2133.56zm-1256.12 768.75c-105.09,194.76 -401.61,34.78 -296.52,-160 618.27,-1147.49 767.67,-2117.4 743.23,-3398.92 -4.99,-221.18 331.36,-228.8 336.35,-7.56 25.53,1338.69 -137.6,2368.55 -783.06,3566.48zm-6984.18 5668.42l475.74 465.66c253.27,247.9 805.07,38.95 1370.8,-358.86 499.88,-351.48 973.52,-826.99 1318.29,-1331.78 365.14,-534.66 549.31,-1043.3 318.31,-1271.67l-456.62 -451.43c-518.58,1195.41 -1840.37,2444.69 -3026.52,2948.08zm-30196.95 -25222.92c2168.06,-3181.44 5528.76,-6882.23 9055.96,-8548.32 -235.05,-272.33 -474.94,-542.83 -718.23,-810.06 -1517.14,714.61 -3309.41,2053.63 -4954.7,3585.4 -1743.45,1623.17 -3315.88,3457.46 -4217.08,4991.2 280.04,272.08 559.09,533.33 834.05,781.78zm2434.99 3677.59l8607.33 8889.24 10837.9 -10554.01c589.65,-642.42 549.22,-1097.23 -57.7,-1701.66l-4.73 -5.21 -6817.67 -7150.71 -0.72 0.72c-693.17,-695 -1212.5,-565.68 -1886.33,102.65l-1.02 1.16 -10677.06 10417.82zm-915.24 1657.39l7901.43 8186.53c234.97,242.9 377.86,295.87 620.87,40.22l5.21 -4.71 594.83 -597.02 -8606.5 -8888.38 -521.67 539.04 -1.1 0.07c-261.01,266.69 -227.26,481.62 6.93,724.25z"
                style="fill: #000000; fill-rule: nonzero;"></path>
        </g>
    </g>
    <g id="SvgjsG3964" featurekey="nameRightFeature-0"
        transform="matrix(1.227831164471784,0,0,1.227831164471784,177.00750189303753,-13.899043723312076)"
        fill="#114084">
        <path
            d="M5.695 40 l0 -28 l3.64 0 l5.6 16.08 l0 -16.08 l3.76 0 l0 28 l-3.6 0 l-5.64 -16.16 l0 16.16 l-3.76 0 z M26.15 23.4 l4.16 0 l0 3.8 l-4.16 0 l0 9 l6.12 0 l0 3.8 l-9.88 0 l0 -28 l9.88 0 l0 3.8 l-6.12 0 l0 7.6 z M39.324999999999996 12 l1.12 18.76 l3.32 -18.76 l3.32 0 l3.32 18.76 l1.12 -18.76 l3.76 0 l-1.64 28 l-5.48 0 l-2.76 -17.48 l-2.72 17.48 l-5.48 0 l-1.64 -28 l3.76 0 z M62.26 31.52 q-0.04 0.24 -0.04 0.48 l0 0.44 q0 1.16 0.28 2.02 t0.72 1.42 t0.98 0.82 t1.1 0.26 q0.92 0 1.64 -0.7 t0.72 -1.98 q0 -1.24 -0.88 -2.94 t-3.12 -3.82 q-0.96 -0.92 -1.9 -1.88 t-1.68 -2.04 t-1.24 -2.34 t-0.62 -2.78 q0 -0.16 -0.02 -0.3 t-0.02 -0.3 q0 -1.56 0.56 -2.78 t1.46 -2.06 t2.06 -1.28 t2.36 -0.44 q1.24 0 2.44 0.48 t2.14 1.48 t1.52 2.54 t0.58 3.62 l0 0.5 t-0.04 0.54 l-3.8 0 q0.04 -0.28 0.04 -0.54 l0 -0.5 q0 -2.36 -0.9 -3.38 t-1.98 -1.02 q-1.04 0 -1.84 0.78 t-0.8 2.18 l0 0.24 q0.08 0.96 0.46 1.84 t0.98 1.68 t1.34 1.56 t1.54 1.48 q2.92 2.8 4.12 5.22 t1.2 4.38 q0 1.44 -0.56 2.6 t-1.48 1.98 t-2.1 1.24 t-2.42 0.42 t-2.44 -0.46 t-2.12 -1.44 t-1.5 -2.5 t-0.58 -3.64 l0 -0.54 t0.04 -0.54 l3.8 0 z">
        </path>
    </g>
</svg>