<svg xmlns="http://www.w3.org/2000/svg" width="265" height="88" style=""><rect id="backgroundrect" width="100%" height="100%" x="0" y="0" fill="none" stroke="none" style="" class=""/>




  <g class="currentLayer" style=""><title>Layer 1</title><g id="SvgjsG3961" featurekey="sloganFeature-0" fill="#114084" class="">
    <path d="M45.70339676381104,76.22502039456629 l-3.3813547600000002,0.11440674000000006 l-1.8050841199999996,11.161013079999998 l-1.44915204,-0.2923727800000002 l1.74152482,-10.817792859999999 l-2.7711854799999998,0.08898302000000007 l-0.038135580000000016,-1.47457576 l7.652539719999999,-0.25423719999999994 zM49.98888256631105,80.39451047456629 l-0.4576269600000002,0.11440674000000006 l-0.35593208000000015,5.161015159999999 l-1.4618639,-0.10169488000000004 l0.3050846400000002,-4.65254076 l-2.38982968,0.6483048600000002 l-0.26694906,1.61440622 l-1.44915204,-0.2415253400000001 l1.1440674,-6.9788111399999995 l1.44915204,0.2415253400000001 l-0.61016928,3.76271056 l2.23728736,-0.59745742 l0.22881348000000015,-3.40677848 l1.47457576,0.10169488000000004 l-0.20338976000000003,2.9872870999999996 zM53.270131428811055,85.25044099456628 c-0.5720337,0 -1.09321996,-0.25423719999999994 -1.47457576,-0.7118641600000001 c-0.6355930000000002,-0.7499997400000001 -0.8389827599999997,-1.98305016 -0.5847455600000002,-3.3813547600000002 c0.4322032400000001,-2.37711782 1.8050841199999996,-4.004235899999999 3.3050836,-3.97881218 c0.6991523000000003,0.012711860000000005 1.2838978600000002,0.27966092000000015 1.6906773800000003,0.77542346 c0.59745742,0.73728788 0.77542346,1.9322027199999998 0.4957625400000001,3.47033778 l0,0 c-0.4449151000000001,2.5169482800000003 -2.05932132,3.8262698599999996 -3.4322022,3.8262698599999996 zM54.47775812881105,78.65298565456627 c-0.54660998,0 -1.4618639,0.8516946200000004 -1.81779598,2.7711854799999998 c-0.20338976000000003,1.1186436800000001 0.012711860000000005,1.8686434200000004 0.26694906,2.1737280599999997 c0.1271186,0.15254232000000006 0.25423719999999994,0.17796604000000013 0.3432202200000002,0.17796604000000013 c0.6355930000000002,0 1.66525366,-0.81355904 1.98305016,-2.6059312999999995 c0.1906779,-1.05508438 0.11440674000000006,-1.9067789999999998 -0.1906779,-2.27542294 c-0.08898302000000007,-0.11440674000000006 -0.22881348000000015,-0.22881348000000015 -0.5720337,-0.2415253400000001 l-0.012711860000000005,0 zM60.631887351311036,85.28857657456629 c-0.08898302000000007,0 -0.17796604000000013,0 -0.25423719999999994,-0.012711860000000005 c-0.66101672,-0.08898302000000007 -1.19491484,-0.39406766000000026 -1.5508469200000001,-0.8898301999999999 c-0.9533894999999999,-1.3093215800000002 -0.47033882000000016,-3.6991512600000007 -0.0635593,-5.796608159999999 l1.44915204,0.27966092000000015 c-0.3177965000000001,1.62711808 -0.7627115999999999,3.8644054399999996 -0.1906779,4.65254076 c0.07627116000000003,0.11440674000000006 0.21610162000000005,0.25423719999999994 0.54660998,0.2923727800000002 c0.22881348000000015,0.02542372000000001 0.4957625400000001,-0.10169488000000004 0.77542346,-0.3813558000000002 c1.19491484,-1.18220298 2.02118574,-4.3474561199999995 1.74152482,-6.635590919999999 l1.4618639,-0.17796604000000013 c0.3432202200000002,2.7584736199999997 -0.6483048600000002,6.35593 -2.1610161999999997,7.86864134 c-0.6483048600000002,0.6355930000000002 -1.2711860000000001,0.80084718 -1.75423668,0.80084718 zM73.87923445381105,79.54281585456627 l-1.5127113399999996,0.5720337 c-0.02542372000000001,0.1652541800000001 -0.0635593,0.36864394 -0.11440674000000006,0.59745742 l-1.06779624,6.483048599999999 l-1.44915204,-0.22881348000000015 l0.47033882000000016,-2.8347447800000003 c-0.2923727800000002,0.20338976000000003 -0.6228811399999999,0.3813558000000002 -1.00423694,0.5084744 c-0.9406776400000002,0.3305083600000002 -1.8559315600000001,0.15254232000000006 -2.50423642,-0.4830506800000002 c-1.00423694,-0.9788132199999997 -1.2330504199999999,-2.8601685 -0.5847455600000002,-4.779659359999999 c0.6737285800000002,-2.05932132 2.1610161999999997,-3.0254226799999997 3.33050732,-3.0762701199999998 c0.9025420599999997,-0.038135580000000016 1.6525418000000005,0.4322032400000001 2.00847388,1.2457622799999999 l-1.36016902,0.5847455600000002 c-0.038135580000000016,-0.08898302000000007 -0.15254232000000006,-0.36864394 -0.5847455600000002,-0.35593208000000015 c-0.6483048600000002,0.02542372000000001 -1.5381350599999999,0.6864404400000004 -1.99576202,2.05932132 c-0.5084744,1.5127113399999996 -0.26694906,2.7966092000000002 0.21610162000000005,3.2669480199999996 c0.08898302000000007,0.10169488000000004 0.36864394,0.36864394 0.99152508,0.15254232000000006 c1.16949112,-0.4194913800000002 1.74152482,-1.6016943600000002 2.00847388,-2.5169482800000003 l-1.56355878,0.59745742 l-0.53389812,-1.37288088 l4.72881192,-1.79237226 zM79.69014345631103,80.39451047456629 l-0.4576269600000002,0.11440674000000006 l-0.35593208000000015,5.161015159999999 l-1.4618639,-0.10169488000000004 l0.3050846400000002,-4.65254076 l-2.38982968,0.6483048600000002 l-0.26694906,1.61440622 l-1.44915204,-0.2415253400000001 l1.1440674,-6.9788111399999995 l1.44915204,0.2415253400000001 l-0.61016928,3.76271056 l2.23728736,-0.59745742 l0.22881348000000015,-3.40677848 l1.47457576,0.10169488000000004 l-0.20338976000000003,2.9872870999999996 zM87.61122121881104,76.22502039456629 l-3.3813547600000002,0.11440674000000006 l-1.8050841199999996,11.161013079999998 l-1.44915204,-0.2923727800000002 l1.74152482,-10.817792859999999 l-2.7711854799999998,0.08898302000000007 l-0.038135580000000016,-1.47457576 l7.652539719999999,-0.25423719999999994 zM86.72298000131104,85.19959355456629 l0.26694906,-1.2203385599999999 l1.38559274,0.2415253400000001 l-0.25423719999999994,1.2330504199999999 zM97.67106942631105,82.66993341456629 l2.4788126999999998,-0.4322032400000001 l0.25423719999999994,1.4618639 l-5.00847284,0.8516946200000004 l-0.2415253400000001,-1.44915204 l0.92796578,-0.1652541800000001 l0.47033882000000016,-1.9576264399999999 l-0.22881348000000015,-1.3347453 l0.5720337,-0.10169488000000004 l0.26694906,-1.06779624 l-0.9533894999999999,0.1652541800000001 l-0.2415253400000001,-1.4618639 l5.80932002,-0.9788132199999997 l0.2415253400000001,1.44915204 l-3.27965988,0.5593218400000003 l-0.25423719999999994,1.06779624 l1.16949112,-0.20338976000000003 l0.2415253400000001,1.4618639 l-1.79237226,0.3050846400000002 zM108.89723078881104,85.96230515456628 l-0.54660998,-6.5466079 l-1.79237226,3.3686428999999998 l-1.34745716,-0.08898302000000007 l-1.04237252,-2.8093210600000003 l-0.80084718,4.3728798399999995 l-1.44915204,-0.26694906 l1.2711860000000001,-7.0042348599999995 l1.4237283200000004,-0.1271186 l1.4110164600000001,3.78813428 l2.1991517800000002,-4.144066359999999 l1.38559274,0.2923727800000002 l0.7499997400000001,9.03813246 zM113.64034355131105,85.25044099456628 c-0.5720337,0 -1.09321996,-0.25423719999999994 -1.47457576,-0.7118641600000001 c-0.6355930000000002,-0.7499997400000001 -0.8389827599999997,-1.98305016 -0.5847455600000002,-3.3813547600000002 c0.4322032400000001,-2.37711782 1.8050841199999996,-4.004235899999999 3.3050836,-3.97881218 c0.6991523000000003,0.012711860000000005 1.2838978600000002,0.27966092000000015 1.6906773800000003,0.77542346 c0.59745742,0.73728788 0.77542346,1.9322027199999998 0.4957625400000001,3.47033778 l0,0 c-0.4449151000000001,2.5169482800000003 -2.05932132,3.8262698599999996 -3.4322022,3.8262698599999996 zM114.84797025131104,78.65298565456627 c-0.54660998,0 -1.4618639,0.8516946200000004 -1.81779598,2.7711854799999998 c-0.20338976000000003,1.1186436800000001 0.012711860000000005,1.8686434200000004 0.26694906,2.1737280599999997 c0.1271186,0.15254232000000006 0.25423719999999994,0.17796604000000013 0.3432202200000002,0.17796604000000013 c0.6355930000000002,0 1.66525366,-0.81355904 1.98305016,-2.6059312999999995 c0.1906779,-1.05508438 0.11440674000000006,-1.9067789999999998 -0.1906779,-2.27542294 c-0.08898302000000007,-0.11440674000000006 -0.22881348000000015,-0.22881348000000015 -0.5720337,-0.2415253400000001 l-0.012711860000000005,0 zM125.28599629381102,76.22502039456629 l-3.3813547600000002,0.11440674000000006 l-1.8050841199999996,11.161013079999998 l-1.44915204,-0.2923727800000002 l1.74152482,-10.817792859999999 l-2.7711854799999998,0.08898302000000007 l-0.038135580000000016,-1.47457576 l7.652539719999999,-0.25423719999999994 zM125.42741573631105,83.41993315456628 l-1.44915204,-0.22881348000000015 l1.4110164600000001,-8.30084458 l1.44915204,0.2415253400000001 zM129.90357943881105,85.25044099456628 c-0.5720337,0 -1.09321996,-0.25423719999999994 -1.47457576,-0.7118641600000001 c-0.6355930000000002,-0.7499997400000001 -0.8389827599999997,-1.98305016 -0.5847455600000002,-3.3813547600000002 c0.4322032400000001,-2.37711782 1.8050841199999996,-4.004235899999999 3.3050836,-3.97881218 c0.6991523000000003,0.012711860000000005 1.2838978600000002,0.27966092000000015 1.6906773800000003,0.77542346 c0.59745742,0.73728788 0.77542346,1.9322027199999998 0.4957625400000001,3.47033778 l0,0 c-0.4449151000000001,2.5169482800000003 -2.05932132,3.8262698599999996 -3.4322022,3.8262698599999996 zM131.11120613881104,78.65298565456627 c-0.54660998,0 -1.4618639,0.8516946200000004 -1.81779598,2.7711854799999998 c-0.20338976000000003,1.1186436800000001 0.012711860000000005,1.8686434200000004 0.26694906,2.1737280599999997 c0.1271186,0.15254232000000006 0.25423719999999994,0.17796604000000013 0.3432202200000002,0.17796604000000013 c0.6355930000000002,0 1.66525366,-0.81355904 1.98305016,-2.6059312999999995 c0.1906779,-1.05508438 0.11440674000000006,-1.9067789999999998 -0.1906779,-2.27542294 c-0.08898302000000007,-0.11440674000000006 -0.22881348000000015,-0.22881348000000015 -0.5720337,-0.2415253400000001 l-0.012711860000000005,0 zM135.93059006131102,85.21230541456629 l-1.44915204,-0.2415253400000001 l1.2076266999999998,-7.42372624 l1.38559274,-0.21610162000000005 l1.9322027199999998,3.77542242 l1.79237226,-7.10592974 l1.4237283200000004,0.35593208000000015 l-2.26271108,9.012708739999999 l-1.37288088,0.15254232000000006 l-1.8050841199999996,-3.52118522 zM143.03810878381103,85.19959355456629 l0.26694906,-1.2203385599999999 l1.38559274,0.2415253400000001 l-0.25423719999999994,1.2330504199999999 zM153.90992704881103,83.41993315456628 l-1.44915204,-0.22881348000000015 l1.4110164600000001,-8.30084458 l1.44915204,0.2415253400000001 zM157.40727753131102,85.21230541456629 l-1.44915204,-0.2415253400000001 l1.2076266999999998,-7.42372624 l1.38559274,-0.21610162000000005 l1.9322027199999998,3.77542242 l1.79237226,-7.10592974 l1.4237283200000004,0.35593208000000015 l-2.26271108,9.012708739999999 l-1.37288088,0.15254232000000006 l-1.8050841199999996,-3.52118522 zM167.19699871381107,79.8351886345663 l0.2415253400000001,1.4618639 l-1.74152482,0.2923727800000002 l-0.5084744,3.3813547600000002 l-1.44915204,-0.21610162000000005 l0.4957625400000001,-3.3940666200000003 l-0.1652541800000001,-0.99152508 l0.3177965000000001,-0.05084744000000002 l0.20338976000000003,-1.3093215800000002 l-0.4194913800000002,0.07627116000000003 l-0.26694906,-1.44915204 l5.961862340000001,-1.09321996 l0.26694906,1.44915204 l-4.01694776,0.73728788 l-0.1906779,1.32203344 zM171.45706079631105,85.25044099456628 c-0.5720337,0 -1.09321996,-0.25423719999999994 -1.47457576,-0.7118641600000001 c-0.6355930000000002,-0.7499997400000001 -0.8389827599999997,-1.98305016 -0.5847455600000002,-3.3813547600000002 c0.4322032400000001,-2.37711782 1.8050841199999996,-4.004235899999999 3.3050836,-3.97881218 c0.6991523000000003,0.012711860000000005 1.2838978600000002,0.27966092000000015 1.6906773800000003,0.77542346 c0.59745742,0.73728788 0.77542346,1.9322027199999998 0.4957625400000001,3.47033778 l0,0 c-0.4449151000000001,2.5169482800000003 -2.05932132,3.8262698599999996 -3.4322022,3.8262698599999996 zM172.66468749631105,78.65298565456627 c-0.54660998,0 -1.4618639,0.8516946200000004 -1.81779598,2.7711854799999998 c-0.20338976000000003,1.1186436800000001 0.012711860000000005,1.8686434200000004 0.26694906,2.1737280599999997 c0.1271186,0.15254232000000006 0.25423719999999994,0.17796604000000013 0.3432202200000002,0.17796604000000013 c0.6355930000000002,0 1.66525366,-0.81355904 1.98305016,-2.6059312999999995 c0.1906779,-1.05508438 0.11440674000000006,-1.9067789999999998 -0.1906779,-2.27542294 c-0.08898302000000007,-0.11440674000000006 -0.22881348000000015,-0.22881348000000015 -0.5720337,-0.2415253400000001 l-0.012711860000000005,0 zM183.6111879388111,85.86061027456628 l-1.09321996,0.99152508 l-4.36016798,-4.79237122 l-0.6864404400000004,2.8347447800000003 l-1.4237283200000004,-0.3432202200000002 l1.3983046000000003,-5.87287932 c-0.1906779,0.07627116000000003 -0.3813558000000002,0.15254232000000006 -0.5847455600000002,0.2415253400000001 l-0.61016928,-1.3347453 c3.2415242999999996,-1.47457576 4.7033882,-0.8389827599999997 5.28813376,-0.3177965000000001 c0.5847455600000002,0.5084744 0.78813532,1.2711860000000001 0.54660998,2.04660946 c-0.35593208000000015,1.16949112 -1.6016943600000002,1.72881296 -2.61864316,2.00847388 zM179.07305391881107,78.19535869456627 l-0.4322032400000001,1.8050841199999996 c0.8262709,-0.1652541800000001 1.8559315600000001,-0.5211862599999998 2.0338976,-1.1186436800000001 c0.05084744000000002,-0.15254232000000006 0.0635593,-0.35593208000000015 -0.10169488000000004,-0.5084744 c-0.22881348000000015,-0.20338976000000003 -0.72457602,-0.3050846400000002 -1.4999994799999998,-0.17796604000000013 zM190.22294412131106,85.96230515456628 l-0.54660998,-6.5466079 l-1.79237226,3.3686428999999998 l-1.34745716,-0.08898302000000007 l-1.04237252,-2.8093210600000003 l-0.80084718,4.3728798399999995 l-1.44915204,-0.26694906 l1.2711860000000001,-7.0042348599999995 l1.4237283200000004,-0.1271186 l1.4110164600000001,3.78813428 l2.1991517800000002,-4.144066359999999 l1.38559274,0.2923727800000002 l0.7499997400000001,9.03813246 zM199.55503834381108,81.94535739456629 l-1.0805081,0.10169488000000004 l0.4830506800000002,4.18220194 l-1.4618639,0.1652541800000001 l-0.4830506800000002,-4.20762566 l-2.5169482800000003,0.22881348000000015 l-1.15677926,2.1737280599999997 l-1.29660972,-0.6864404400000004 l0.7118641600000001,-1.34745716 l-0.13983046000000007,-1.43644018 l0.9533894999999999,-0.08898302000000007 l2.8347447800000003,-5.3008456200000005 l1.37288088,0.26694906 l0.53389812,4.588981459999999 l1.1059318200000001,-0.11440674000000006 zM195.3347008238111,80.86484929456628 l1.4999994799999998,-0.15254232000000006 l-0.25423719999999994,-2.1991517800000002 zM207.33628564631107,76.22502039456629 l-3.3813547600000002,0.11440674000000006 l-1.8050841199999996,11.161013079999998 l-1.44915204,-0.2923727800000002 l1.74152482,-10.817792859999999 l-2.7711854799999998,0.08898302000000007 l-0.038135580000000016,-1.47457576 l7.652539719999999,-0.25423719999999994 zM207.47770508881104,83.41993315456628 l-1.44915204,-0.22881348000000015 l1.4110164600000001,-8.30084458 l1.44915204,0.2415253400000001 zM211.95386879131104,85.25044099456628 c-0.5720337,0 -1.09321996,-0.25423719999999994 -1.47457576,-0.7118641600000001 c-0.6355930000000002,-0.7499997400000001 -0.8389827599999997,-1.98305016 -0.5847455600000002,-3.3813547600000002 c0.4322032400000001,-2.37711782 1.8050841199999996,-4.004235899999999 3.3050836,-3.97881218 c0.6991523000000003,0.012711860000000005 1.2838978600000002,0.27966092000000015 1.6906773800000003,0.77542346 c0.59745742,0.73728788 0.77542346,1.9322027199999998 0.4957625400000001,3.47033778 l0,0 c-0.4449151000000001,2.5169482800000003 -2.05932132,3.8262698599999996 -3.4322022,3.8262698599999996 zM213.1614954913111,78.65298565456627 c-0.54660998,0 -1.4618639,0.8516946200000004 -1.81779598,2.7711854799999998 c-0.20338976000000003,1.1186436800000001 0.012711860000000005,1.8686434200000004 0.26694906,2.1737280599999997 c0.1271186,0.15254232000000006 0.25423719999999994,0.17796604000000013 0.3432202200000002,0.17796604000000013 c0.6355930000000002,0 1.66525366,-0.81355904 1.98305016,-2.6059312999999995 c0.1906779,-1.05508438 0.11440674000000006,-1.9067789999999998 -0.1906779,-2.27542294 c-0.08898302000000007,-0.11440674000000006 -0.22881348000000015,-0.22881348000000015 -0.5720337,-0.2415253400000001 l-0.012711860000000005,0 zM217.98087941381107,85.21230541456629 l-1.44915204,-0.2415253400000001 l1.2076266999999998,-7.42372624 l1.38559274,-0.21610162000000005 l1.9322027199999998,3.77542242 l1.79237226,-7.10592974 l1.4237283200000004,0.35593208000000015 l-2.26271108,9.012708739999999 l-1.37288088,0.15254232000000006 l-1.8050841199999996,-3.52118522 zM225.08839813631107,85.19959355456629 l0.26694906,-1.2203385599999999 l1.38559274,0.2415253400000001 l-0.25423719999999994,1.2330504199999999 z" stroke-width="0" id="svg_1"/>
  </g><g id="SvgjsG3962" featurekey="nameLeftFeature-0" fill="#114084" class="">
    <path d="M0.0000012438110417178905,48.00043917456628 l0,-35.999992 l8.38285528,0 q1.74857104,0 3.26571356,0.6685712800000002 t2.67428512,1.7999995999999998 t1.82571388,2.67428512 t0.6685712800000002,3.2914278400000003 l0,5.60571304 q0,1.74857104 -0.6685712800000002,3.26571356 t-1.82571388,2.64857084 t-2.67428512,1.7999995999999998 t-3.26571356,0.6685712800000002 l-3.5485706400000003,0 l0,13.577139840000001 l-4.834284640000001,0 zM4.834285883811049,16.88616037456626 l0,12.702854320000002 l3.5485706400000003,0 q1.4914282400000003,0 2.5199994400000003,-1.05428548 t1.0285712,-2.49428516 l0,-5.60571304 q0,-1.4914282400000003 -1.0285712,-2.5199994400000003 t-2.5199994400000003,-1.0285712 l-3.5485706400000003,0 zM26.40213823381103,26.657586774566255 l5.34857024,0 l0,4.8857132 l-5.34857024,0 l0,11.571426 l7.86856968,0 l0,4.8857132 l-12.702854320000002,0 l0,-35.999992 l12.702854320000002,0 l0,4.8857132 l-7.86856968,0 l0,9.7714264 zM39.02142114381104,48.00043917456628 l0,-35.999992 l4.67999896,0 l7.199998399999999,20.67428112 l0,-20.67428112 l4.834284640000001,0 l0,35.999992 l-4.6285704,0 l-7.251426960000001,-20.77713824 l0,20.77713824 l-4.834284640000001,0 zM66.91498637381105,12.000447174566261 l4.78285608,0 l8.485712399999999,35.999992 l-4.98857032,0 l-2.9828564800000006,-12.54856864 l-5.811427279999999,0 l-2.9828564800000006,12.54856864 l-4.98857032,0 zM71.08069973381106,30.56615733456627 l-1.7999995999999998,-7.4571412 l-1.74857104,7.4571412 l3.5485706400000003,0 z" stroke-width="0" id="svg_2"/>
  </g><g id="SvgjsG3963" featurekey="inlineSymbolFeature-0" fill="#000000" class="">
    <g xmlns="http://www.w3.org/2000/svg" stroke-width="0" id="svg_3">
      <path class="fil0" d="M121.66880868381105,40.36411421456626 l-10.81602898,-11.20629518 c-0.6102468400000003,-0.6323623799999998 -0.6031299800000002,-1.3998221600000005 0.015654360000000016,-2.03279924 l-0.0007239800000000004,-0.0007103200000000005 c0.69786208,-0.7210704200000002 1.3407699800000001,-1.35417044 2.0475657000000003,-2.0438092 c-2.0304907,-1.22261098 -5.31766042,-4.0137178 -8.0768848,-7.26533054 c-2.1586215,-2.5438061800000002 -4.0041558,-5.379690480000001 -4.69660852,-7.99064922 c-0.2919005400000001,-1.10064084 -0.12030361999999999,-2.29001704 0.3830264000000002,-3.44923196 c0.58904652,-1.35658826 1.6383940600000004,-2.6783025400000002 2.92660036,-3.76158152 c1.28606168,-1.0814622 2.8139190199999997,-1.9290788600000002 4.36253956,-2.3397804200000003 c1.49436302,-0.3963312400000001 3.01265836,-0.38936464000000026 4.36501202,0.19785144000000013 c1.7595172799999999,0.7639901400000002 4.18565622,2.65497126 6.61115314,4.99762028 c2.36947726,2.2885417599999998 4.74572988,5.0129468 6.499837800000001,7.5368913399999995 l1.43503764,-1.4002046400000001 l0.00012294000000000012,0.00010928000000000009 c1.2272827000000002,-1.21640934 2.40294426,-1.39474064 3.6579431000000002,-0.13642242000000004 l0.004958580000000003,0.007212480000000004 l9.31226788,9.76713222 l0.00015026000000000015,-0.00016392000000000004 c1.12412238,1.1194916400000001 1.1847318,2.21084368 0.09500530000000006,3.39243368 l-0.015545080000000008,0.015995860000000008 l-4.31656,4.20348252 l0.54340846,0.5241068799999998 c1.1022663799999999,-0.49919104000000003 2.48913886,-0.30464532 3.9907690000000002,-0.09388518000000007 l0.05750860000000003,0.008073060000000003 c2.79270504,0.39179612 5.312374,0.92161288 7.72518078,1.6282583400000001 c3.3825028600000002,0.9906505200000001 6.5618678599999996,2.3362015 9.654573820000001,3.98586506 c0.83140224,0.44349922 1.6505378,0.9083217000000001 2.4704793,1.37270706 c1.3976912000000001,0.79161066 2.7595932000000003,1.56293622 4.2296004400000005,2.26021092 c0.45632596000000025,0.21511767999999998 0.12925092000000002,0.90890908 -0.3270477200000001,0.6938187200000002 c-0.9385102999999997,-0.4451794000000001 -1.83594498,-0.92172216 -2.7274648800000003,-1.4150120800000001 c-0.7252640400000001,-0.4012625 -0.5672998000000002,-0.40287438000000025 -0.26455322,0.21327358000000005 c0.11732574000000008,0.2388177800000001 0.20823304000000006,0.47885130000000015 0.26571432,0.71471852 c0.11921082000000004,0.4890826400000001 -0.62443958,0.6703371800000001 -0.7436230800000002,0.18125454000000005 c-0.3842011600000001,-1.57676014 -1.9216205,-2.6300827399999998 -3.2863637800000003,-3.3566444800000004 c-3.0355252,-1.61616924 -6.1693887400000005,-2.9443583600000003 -9.4845478,-3.91528384 c-2.37517348,-0.6956081800000002 -4.86006408,-1.21780266 -7.61846886,-1.6047768000000002 l-0.05752226000000002,-0.008073060000000003 c-1.61660636,-0.2269199200000001 -3.08621746,-0.4331859200000001 -4.004811480000001,0.29903106 c-0.47900156000000016,0.3818379800000002 -0.7887557199999999,0.83806832 -1.1585182600000001,1.3827608200000001 c-0.49645904,0.7312744400000003 -1.09372888,1.6110330800000001 -2.3232928,2.70962492 c-0.6229233200000002,0.5565766999999998 -1.3183812400000001,1.5431428800000002 -0.6225271800000001,2.3135942000000003 c1.41889152,1.5711732 4.81857866,-0.08798406000000003 6.1813002599999995,-1.26714258 c0.3682189600000002,-0.3185921800000001 0.70037552,-0.6601058400000004 0.9323496400000002,-0.9804191799999998 c0.2948647600000002,-0.4073548600000002 0.9149741200000001,0.041567380000000015 0.6201230200000003,0.44886760000000026 c-0.04543316000000004,0.06275404000000004 -0.09384420000000006,0.12589055999999993 -0.14483698000000006,0.18919100000000005 c1.25926076,0.2163470800000001 3.4643945599999997,0.9551345200000001 5.05690468,0.5313193599999998 c0.48355034,-0.14456378000000006 0.70333974,0.5906447400000002 0.21981672000000005,0.73520852 c-0.6178144799999999,0.18667756 -1.62900964,0.11829560000000008 -2.2885827400000003,0.05238610000000003 c0.15900240000000013,0.12237994 0.3093170400000001,0.2473826 0.4490042000000002,0.37222134 c1.2226383,0.06364194000000006 2.2571510800000003,0.8895801799999998 2.2713848,2.1352902200000003 c0.002950560000000002,0.25392574 -0.019369880000000006,0.17751170000000005 0.16254034000000012,0.37212572000000016 l0.2538028000000001,0.27153348 c0.20379354000000005,0.21801360000000006 0.12166961999999999,0.14569756 0.41245004,0.11817266000000007 c0.4850529400000001,-0.045938580000000034 0.9862246800000001,0.028658680000000016 1.41714304,0.22951532000000013 c1.0397309,0.48464314000000003 1.4156814199999999,1.53657242 1.11210158,2.5866849199999997 c1.6408118800000002,1.0453315 5.0303633,1.2313124 6.938118899999999,1.05390998 c0.30095712,-0.02686922000000001 0.3417868600000003,0.4306998 0.04088438000000001,0.45756902000000005 c-1.9139435800000002,0.17796248000000012 -4.58090832,0.03450516000000003 -6.397920539999999,-0.6770988800000005 l5.52775122,5.9137008600000005 c0.4388684800000002,0.4455892000000002 0.55805198,1.03049674 0.4435811800000002,1.67298118 l0.9049750000000002,0.8946753600000003 c0.21142948000000011,0.20903898000000007 0.3224033200000001,0.46542352000000015 0.3506658600000001,0.75231084 c0.4764061600000002,0.04895744000000001 1.8568584399999999,-0.543668 2.11788738,-1.05056328 c0.23116818000000006,-0.4468595800000002 0.91149082,-0.09492334000000008 0.6803226400000003,0.3519499000000001 c-0.28658680000000025,0.5566040200000003 -0.6329770800000002,0.3613479800000001 0.21718034000000008,0.5724906000000003 c0.9965652999999998,0.24749188000000014 1.7173215400000001,0.5952754800000002 2.6346998200000007,0.9365022799999998 c0.47159784000000005,0.17458846000000006 0.20612940000000007,0.8916701600000002 -0.2654821000000001,0.7170680400000001 c-0.86917214,-0.2696620600000001 -1.5684821799999995,-0.6643404400000003 -2.5517563,-0.90854026 c-0.37272676000000027,-0.09257382000000006 -0.73253116,-0.16214420000000013 -1.0360700200000001,-0.18972374000000003 c-0.52000888,-0.047277260000000015 -0.58732536,0.05274126000000002 -1.05833582,0.19591172000000004 c-0.31143434000000014,0.09469112000000006 -0.6557756200000004,0.17333174 -0.8269764000000002,0.13591700000000007 c-0.1623491000000001,0.55052532 -0.4918966000000002,1.0806152800000002 -0.8430269,1.53375846 l8.05657238,8.1399257 c0.3539169400000001,0.35742756000000026 -0.19022916000000004,0.8962052800000003 -0.5441187799999998,0.53879138 l-8.01190418,-8.09479306 c-0.18066716000000005,0.1926469800000001 -0.37003574,0.37749410000000017 -0.5672588199999999,0.5531343799999998 l7.88744792,8.07881086 c0.3520728400000001,0.35949022 -0.1952150600000001,0.8955086200000003 -0.54731522,0.53600474 l-7.938509,-8.13110134 c-0.7495378600000001,0.5446651800000001 -2.1162755,1.2743414 -2.93748738,0.4705323600000001 l-0.93788194,-0.91800664 c-0.73451186,0.15484976000000006 -1.41666494,0.06267208000000003 -1.9440775399999999,-0.3817423600000001 l-0.022265800000000016,-0.019684060000000007 l-1.0859017000000002,-1.0646330800000001 c-0.8888425400000003,-0.08695955999999999 -1.7966861399999998,0.1485525 -2.69357442,0.3812779200000001 c-2.36282484,0.6130744600000002 -4.65733602,1.20844556 -6.91185072,-3.1225394 c-0.26403414,-0.5072367799999995 -0.8512912000000002,-0.7728964599999999 -1.4317865600000004,-1.0354963 c-1.6370963600000001,-0.74072716 -2.54995318,-2.01866114 -2.1558212,-3.84703848 c-0.2600181000000001,0.05114304000000003 -0.5192302599999998,0.08652244000000006 -0.7764070799999998,0.10240902 c-2.1799311,0.13460564 -3.78804094,-2.3360922200000003 -2.8534920400000003,-4.24287796 c-4.336435300000001,0.1889041400000001 -5.295421940000001,-3.7982313000000003 -0.8399534000000002,-5.5529949 l-1.1278515599999999,-1.10576334 l-3.37199832,3.2836727600000004 c-0.002718340000000002,0.0026363800000000015 -0.005450340000000001,0.0051908000000000015 -0.008223320000000003,0.007717900000000003 l-0.9272817799999998,0.93071044 l0.00035516000000000036,0.00032784000000000025 c-0.6364057399999999,0.6694902600000002 -1.3287355200000002,0.59703762 -1.95443182,-0.04979070000000002 zm6.739188320000001,-8.355494160000001 c-0.2169071400000001,0.21013178000000007 -0.53686532,-0.12011238000000002 -0.3199172000000001,-0.3302851400000001 l8.84154428,-8.54136578 c0.21692080000000008,-0.21013178000000007 0.53686532,0.12011238000000002 0.31993086000000026,0.3302851400000001 l-8.84155794,8.54136578 zm-6.3265607,-15.94667034 c0.057412980000000016,-0.20050148000000007 0.11997578000000006,-0.42363758 0.18771572000000003,-0.66955856 c0.05875166000000004,-0.21328724000000007 0.11475766000000004,-0.42034552000000014 0.16797702000000006,-0.62110654 c-0.3933670200000002,-0.0037018600000000026 -0.7907637399999998,-0.01199348 -1.19188964,-0.02494316000000001 c-0.11718914000000007,0.4321750800000001 -0.23874948000000015,0.8621508999999999 -0.3644078200000001,1.2895723000000001 c0.40429501999999995,0.013386800000000008 0.8046286400000002,0.02206090000000001 1.20060472,0.026035960000000014 zm0.47543630000000014,-1.7494498600000006 c0.11165684000000003,-0.4333635000000001 0.21857366,-0.8627792600000004 0.32061386000000025,-1.29125248 c-0.3908399200000001,-0.0029095800000000015 -0.7858871199999998,-0.010354280000000004 -1.1848001000000001,-0.02241606000000001 c-0.10402090000000004,0.43145110000000014 -0.21254960000000006,0.8618094000000004 -0.3254768200000002,1.29102026 c0.4010849200000001,0.012212040000000004 0.79773034,0.019752360000000007 1.18966306,0.022648280000000007 zm0.4280770800000001,-1.7500918800000005 c0.08193268000000004,-0.35610254 0.15990396000000007,-0.7097462800000003 0.23368161999999995,-1.0622699 c-0.06050014000000003,-0.07698776 -0.12142374000000006,-0.15401650000000006 -0.18272982000000004,-0.2310589 c-0.3106010800000001,-0.003483300000000002 -0.6266388400000003,-0.009903500000000006 -0.9479493600000003,-0.019328900000000013 c-0.09098926000000003,0.43184724 -0.18671854000000007,0.8626699800000002 -0.28695562,1.2924409000000001 c0.3990222600000003,0.011378780000000003 0.7937416200000003,0.01808584000000001 1.18395318,0.0202168 zm0.60272018,-0.58636916 c-0.042482600000000016,0.19598002000000006 -0.08601702000000003,0.3914546200000002 -0.1305213,0.58668334 c0.19021550000000007,-0.0007922800000000006 0.37929722000000005,-0.002663700000000002 0.5672041800000001,-0.005668900000000003 c-0.14250111999999998,-0.19302946000000007 -0.2881577,-0.38681022000000026 -0.4366828800000002,-0.58101444 zm-0.23731518000000007,1.04651992 c-0.10071518000000003,0.4259461200000001 -0.20703096,0.8555121399999998 -0.3186741400000001,1.29117052 c0.3130735400000001,-0.0006830000000000002 0.6229916200000004,-0.00435754 0.9295766599999998,-0.011009960000000006 l0.7719266,-0.7531987400000002 c-0.12324052000000003,-0.17878208000000007 -0.24971846000000011,-0.3586159800000001 -0.3791742800000002,-0.5392968 c-0.3311320600000001,0.007526660000000004 -0.6657474200000004,0.011665640000000003 -1.00365484,0.012334980000000004 zm-0.43785764000000016,1.75096612 c-0.06791752000000002,0.2588023600000001 -0.13431878000000005,0.5059254200000003 -0.19912182,0.7411916000000005 l-0.002103640000000001,0.007649600000000003 l0.77082014,-0.7521196000000002 c-0.18883584000000006,0.0021856 -0.3787235000000001,0.003278400000000002 -0.56959468,0.003278400000000002 zm-3.3194756200000004,3.79136032 c0.04025602000000002,-0.11695692000000003 0.08026616000000006,-0.23432364 0.11998944000000003,-0.3521001600000001 c-0.45340272000000015,-0.02186966000000001 -0.91135422,-0.04954482000000002 -1.37341738,-0.08314842000000003 c-0.14769192,0.43259854000000014 -0.29896276000000027,0.8596511200000003 -0.45362128,1.28081624 c0.262955,0.01976602000000001 0.52477622,0.03767428000000001 0.7854226799999998,0.05368380000000004 l0.9216265400000001,-0.8992514600000001 zm0.27070022,-0.8048335400000001 c0.14045211999999999,-0.4276263000000001 0.27616422,-0.8568508200000002 0.4071363,-1.28749598 c-0.4511624800000001,-0.019984580000000016 -0.9072972,-0.04576100000000002 -1.3679533799999999,-0.07745220000000003 c-0.1335265,0.4328580800000002 -0.27083682000000014,0.8612083600000001 -0.41172606000000017,1.28477764 c0.4622544,0.03267472000000003 0.91990538,0.05936636000000003 1.3725431399999999,0.08017054000000005 zm0.5434221199999998,-1.74195052 c0.12524854000000005,-0.4235829400000002 0.24734161999999998,-0.85335386 0.36611532,-1.28908054 c-0.45408572,-0.01865956000000001 -0.90792556,-0.04301534000000002 -1.3614239000000001,-0.07284878 c-0.12003042000000004,0.43317226000000025 -0.24395394000000006,0.8623967800000001 -0.3715520000000001,1.287455 c0.4600688000000001,0.030735000000000016 0.9158210400000003,0.05554156000000002 1.36686058,0.07447432000000002 zm0.4885225800000002,-1.74470984 c0.11358290000000004,-0.4291289000000002 0.22275361999999999,-0.8594052400000002 0.32732092000000024,-1.29082902 c-0.4468049400000002,-0.017443820000000006 -0.8985548000000002,-0.040624840000000016 -1.3547988,-0.06962502000000008 c-0.10626114000000006,0.4312598600000001 -0.21712569999999998,0.86127666 -0.33258002000000025,1.2901596800000001 c0.4530339,0.02897286000000001 0.9064366199999999,0.05246806000000002 1.3600579000000002,0.07029436000000003 zm0.4360272000000001,-1.74666322 c0.10081079999999998,-0.42983922 0.19712746000000006,-0.8607439200000002 0.2888816800000002,-1.29260482 c-0.3640799800000002,-0.013673660000000004 -0.7235702,-0.030612060000000007 -1.07812916,-0.05088350000000002 c-0.10501808,0.06294528000000002 -0.20988590000000001,0.12714728000000006 -0.31458980000000025,0.19257868000000006 c-0.07996564000000006,0.3619217000000001 -0.16338726000000006,0.72305112 -0.2495682000000001,1.08353852 c0.45568394,0.028276199999999998 0.9069693600000001,0.050705920000000015 1.3534054800000002,0.06737112000000003 zm0.3840645600000003,-1.74893078 c0.018304400000000016,-0.08945934000000003 0.036362920000000014,-0.17872744000000013 0.05417556000000004,-0.2678179600000002 c-0.16140656000000006,0.08017054000000005 -0.3226628600000002,0.16360581999999999 -0.48370060000000015,0.25023753999999987 c0.14500090000000004,0.006515819999999999 0.28818502,0.012389620000000004 0.42952504,0.017580420000000017 zm0.55777878,-0.44307576000000026 c-0.029751480000000018,0.15263684000000005 -0.060090340000000034,0.30531466000000024 -0.09107122000000009,0.45801980000000014 c0.15939854000000006,0.0043712 0.3188380600000002,0.007991100000000003 0.4783049000000002,0.010887020000000004 c-0.12763904,-0.15643432000000007 -0.25675336000000004,-0.3128003400000001 -0.38723368,-0.4689068200000001 zm-1.5284857,6.1567669 c-0.13017979999999996,0.4309047000000002 -0.2650176600000001,0.86040242 -0.40456822000000014,1.28835656 l0.05504980000000002,0.002008020000000001 l1.29664818,-1.26516188 c-0.3130189000000002,-0.005504980000000003 -0.6287834600000002,-0.013905880000000004 -0.94712976,-0.025202699999999998 zm-4.00425142,4.60313314 c0.17066804000000005,-0.4182828600000002 0.3379210800000002,-0.8431635000000001 0.5015268999999998,-1.27430042 c-0.4484851200000001,-0.038644140000000014 -0.9015190200000001,-0.08283424000000006 -1.35880118,-0.13269324000000005 c-0.16278622000000006,0.42549534 -0.33076324,0.8489143600000001 -0.5039857,1.2698336000000001 c0.45226894,0.050774220000000016 0.9060678,0.09652156000000005 1.36125998,0.13716006 zm0.6692443800000002,-1.72192496 c0.15566936000000006,-0.4208372800000001 0.3078554200000001,-0.8474254200000002 0.45629864000000003,-1.27940926 c-0.45261044,-0.03660880000000003 -0.9047974200000003,-0.07851767999999999 -1.356438,-0.12550808000000005 c-0.14793780000000006,0.42709356000000015 -0.30103908,0.8520015200000003 -0.45859352000000003,1.27562544 c0.45571126,0.04867058000000003 0.90874516,0.09174056000000005 1.35873288,0.12929190000000004 zm0.6084847,-1.7281675800000003 c0.14146296000000005,-0.4226404 0.27946994000000014,-0.8506491800000002 0.41377506000000014,-1.28372582 c-0.44724206000000016,-0.034423200000000015 -0.8985274799999999,-0.07435138 -1.35346012,-0.11989382000000005 c-0.13394996000000006,0.4280497600000001 -0.2727219,0.85508868 -0.4163568000000002,1.28066598 c0.45153129999999997,0.04614348000000003 0.9035680199999998,0.08721910000000006 1.3560418600000004,0.12295366 zm0.5516044600000002,-1.7342735999999999 c0.12804884000000005,-0.4243205800000002 0.25255974,-0.85335386 0.3733141400000001,-1.28681298 c-0.44575312,-0.0329889 -0.8957818200000004,-0.07148278000000002 -1.3497309400000002,-0.11557726000000003 c-0.12078172000000006,0.4289240000000002 -0.24627614000000006,0.8573699 -0.3765105800000002,1.2848869200000004 c0.45094392,0.04440866000000003 0.8983908800000002,0.08327136000000003 1.3419584000000002,0.11668372000000006 l0.01096898,0.0008196000000000008 zm0.4974835400000001,-1.7390136200000001 c0.11604170000000007,-0.4287600800000001 0.22763024000000004,-0.8587632199999999 0.3349295400000002,-1.2898045200000001 c-0.3901159400000001,-0.027975680000000024 -0.7833736800000001,-0.06018596000000003 -1.179541,-0.09664450000000009 c-0.07077246000000002,0.05513176000000003 -0.14143564000000006,0.11072796000000003 -0.21193490000000006,0.16676128000000015 c-0.09409008000000005,0.3689429400000001 -0.1915541800000001,0.7378449000000002 -0.2924606000000001,1.10646 c0.45317050000000014,0.04330220000000002 0.90298064,0.08101746 1.34900696,0.11322774000000009 zm0.4458350800000001,-1.74264718 c0.055568880000000015,-0.23183752 0.11008594000000005,-0.46381164 0.16307308000000006,-0.6962502000000004 c-0.30460434000000014,0.20356132000000007 -0.6075421599999998,0.4169168600000002 -0.9083763399999998,0.6389738200000002 c0.24962284,0.020790520000000007 0.4980845800000002,0.03988720000000001 0.74530326,0.057276380000000016 zm-1.79448688,7.430821440000001 c-0.10863798000000002,0.2884445600000001 -0.21887418000000006,0.57400686 -0.3306266400000002,0.8566459200000005 l0.8396392200000001,-0.8192721599999998 c-0.16897420000000013,-0.011638320000000004 -0.3386314,-0.024109900000000007 -0.5090125799999996,-0.03737376000000002 zm-4.42769776,4.55252284 c0.23033492,-0.45258312 0.45379885999999997,-0.9101111599999998 0.67047378,-1.3720104000000002 c-0.44990576000000027,-0.05834186000000003 -0.8991558400000004,-0.12162864000000007 -1.34770926,-0.1895461600000001 c-0.13363578,0.28455146000000014 -0.26881514,0.5651824999999998 -0.4053878200000001,0.84177018 c0.3898564000000002,0.27946994000000014 0.7534173,0.5210606999999998 1.0826233,0.71978638 zm0.87303792,-1.80936262 c0.19055700000000006,-0.41679392000000004 0.3756636600000001,-0.8369482000000003 0.5554429200000001,-1.2600667 c-0.45067072,-0.05532300000000003 -0.90075406,-0.11554994000000003 -1.35011342,-0.18061252 c-0.18136382,0.42556364 -0.3661699600000001,0.8437235599999999 -0.5541452200000002,1.2541246000000001 c0.4489085800000002,0.06709791999999999 0.8985548000000002,0.12929190000000004 1.3488157200000004,0.18655462 zm0.74013978,-1.7003285000000001 c0.17400108000000006,-0.4200723200000001 0.3427840400000001,-0.8428766400000002 0.5064308399999998,-1.2679895 c-0.45075268,-0.05264564000000003 -0.9009179799999998,-0.11023620000000006 -1.3504276000000002,-0.17270338000000013 c-0.16378340000000013,0.42303654 -0.3325936800000001,0.84409238 -0.5067450200000003,1.2629762800000002 c0.4495915800000001,0.06418834000000002 0.8998525,0.12350006000000002 1.3507417800000001,0.17771660000000006 zm0.6748449800000001,-1.7111199000000001 c0.15866090000000008,-0.42284530000000015 0.3121993,-0.84757568 0.46076546,-1.27405454 c-0.44657272000000026,-0.04996828000000001 -0.8962599200000002,-0.10523664000000006 -1.3486927800000001,-0.1659143600000001 c-0.15068346000000007,0.4290606000000001 -0.3049185200000002,0.85241132 -0.4624866200000001,1.2697653 c0.4495232800000002,0.061647580000000035 0.8996612600000002,0.11841854000000003 1.3504139400000001,0.17020359999999998 zm0.61390772,-1.7193842000000001 c0.14427692,-0.4250855400000001 0.28363624,-0.85168734 0.41818724,-1.2794639 c-0.4452203800000002,-0.048055880000000016 -0.8937464800000002,-0.10146648000000003 -1.3452641200000004,-0.16025912000000006 c-0.1368049,0.4304129400000002 -0.2772297,0.8558536400000002 -0.4210968200000001,1.27599426 c0.4525284800000001,0.06000838000000003 0.90202444,0.11456642000000006 1.3481737,0.16372876000000006 zm0.55700016,-1.7268289 c0.13076718000000007,-0.4271482000000001 0.25675336000000004,-0.8553208999999999 0.3780678200000001,-1.28409464 c-0.25869307999999996,-0.027156080000000013 -0.5186019000000002,-0.05611528000000002 -0.77965816,-0.08689126000000005 c-0.2721891600000001,0.24936330000000007 -0.5403486200000002,0.5030295 -0.8047106,0.7606571000000003 c-0.04559708000000003,0.15129816000000007 -0.09163128000000008,0.3020226000000002 -0.1381026,0.45215966 c0.45114882,0.05812330000000004 0.8994017200000002,0.11082358000000002 1.34440354,0.15816914000000007 zm0.5033436800000001,-1.73319446 c0.05189434000000003,-0.18867192000000002 0.10285979999999997,-0.37742580000000026 0.1529373600000001,-0.56626164 c-0.20196310000000006,0.1694659600000001 -0.4025738600000001,0.34230594000000025 -0.6016956800000005,0.5181374599999998 c0.14993216000000006,0.016651540000000013 0.2995228200000002,0.03267472000000003 0.4487583200000001,0.048124180000000016 zm-2.05805658,7.3873416600000015 c-0.17879574000000004,0.42363758 -0.3630281600000002,0.8445978000000002 -0.5526972600000003,1.2624572 c0.22506216000000004,0.026828240000000007 0.4495096200000001,0.05233146000000004 0.67328774,0.07648234000000002 l1.22893556,-1.19911578 c-0.44923642,-0.04140346000000002 -0.8991148600000003,-0.08803870000000007 -1.3495260400000002,-0.13982376 zm-0.7543871600000001,1.7011481000000002 c-0.14392176,0.3090984800000001 -0.2909033600000001,0.6163938400000002 -0.4409448000000002,0.9217494800000002 l0.89030416,-0.8686940400000005 c-0.1493721,-0.017075000000000014 -0.29915400000000014,-0.0347647 -0.4493593600000002,-0.053055440000000016 zm4.0173377,-14.32095276 c0.07966512000000006,-0.43222972000000015 0.15459022000000006,-0.86540198 0.22478896000000007,-1.29928456 c-0.4371200000000001,-0.044231080000000034 -0.8772042200000002,-0.09358466000000007 -1.31993848,-0.14814270000000004 c-0.07193356000000002,0.4342787200000001 -0.14873008000000007,0.8677515000000002 -0.230171,1.3003637000000001 c0.4423654400000001,0.05401164000000004 0.8842801,0.10301006 1.32532052,0.14706356 zm0.29665422,-1.7544494199999998 c0.023372260000000013,-0.15191286000000004 0.045938580000000034,-0.30269194 0.06771262000000006,-0.45230992000000014 c-0.3320336200000001,-0.3304217400000002 -0.6683974600000002,-0.65651326 -1.0092281200000002,-0.9778511000000001 c-0.06216666000000004,-0.007540320000000004 -0.12431966000000001,-0.015162600000000004 -0.1864180200000001,-0.02288050000000001 c-0.05775448000000001,0.4311232600000001 -0.12120518000000007,0.8663991600000003 -0.1903930800000001,1.3054179000000001 c0.44280256000000034,0.05444876000000002 0.8823677000000001,0.10363842000000002 1.3183266000000002,0.14762361999999993 zm0.4719939800000001,-0.04572002000000003 l-0.013700980000000007,0.09016966000000007 l0.11239448000000003,0.010354280000000004 c-0.03289328000000002,-0.033576280000000014 -0.06578656000000004,-0.06707060000000006 -0.0986935000000001,-0.10052394000000003 zm-0.08514278000000006,0.5455530799999998 c-0.06172954000000002,0.3834362000000001 -0.12751610000000005,0.7661894000000002 -0.19704550000000007,1.1483005800000001 c0.42667010000000016,-0.25523709999999994 0.8448846600000002,-0.48482072000000026 1.2507778999999999,-0.6847484800000004 c-0.12709264,-0.13572576 -0.2546907,-0.27064558 -0.3826985600000002,-0.4046775 c-0.2228082600000001,-0.01829074 -0.4465044200000001,-0.0379065 -0.6710338400000002,-0.058874600000000034 zm-7.31010802,15.89166152 c0.10362476000000004,-0.2108147800000001 0.20644358000000007,-0.4239927400000001 0.30838816000000024,-0.6395065600000001 c-0.4421742000000002,-0.07033534000000002 -0.8854412000000004,-0.14558828000000007 -1.3294048600000006,-0.2257861400000001 l-0.02270292000000001,0.04787830000000002 c0.3609655000000001,0.2951106400000001 0.7103609799999998,0.56848822 1.04371962,0.8174144 zm0.51077472,-1.07282908 c0.18874022000000007,-0.40929458 0.3743659600000002,-0.82659392 0.5565630399999998,-1.25150188 c-0.44476960000000015,-0.06780824000000003 -0.8888562000000003,-0.1403565 -1.3321641800000001,-0.21748086000000008 c-0.18203316000000005,0.42359660000000016 -0.3670168800000002,0.8388742600000002 -0.55467796,1.24543684 c0.4467776200000001,0.07987002000000003 0.89030416,0.15435800000000005 1.3302791,0.22354590000000013 zm0.74138284,-1.6878705800000002 c0.17487532000000003,-0.41815992 0.34431396000000036,-0.8384781200000001 0.5087940200000003,-1.26083166 c-0.4419419800000001,-0.06478938000000002 -0.88643838,-0.13467394000000002 -1.33313404,-0.20977662 c-0.16572312000000006,0.42410202 -0.3352847000000002,0.8427400400000004 -0.50839788,1.25547694 c0.4434582400000001,0.07640038 0.8877497400000004,0.14815636000000001 1.3327379000000001,0.21513134000000006 zm0.6778638400000002,-1.7005470599999999 c0.15827842000000006,-0.4169168600000002 0.3131691600000001,-0.83970752 0.46439902000000005,-1.2680168200000002 c-0.3178545400000002,-0.04502336000000005 -0.63700678,-0.09271042000000006 -0.9573337799999998,-0.14307484 c-0.23582624000000005,0.27023578000000004 -0.46717200000000014,0.5420288000000002 -0.6937231000000003,0.8144501799999998 c-0.04853398000000003,0.13015248000000001 -0.09742312000000006,0.25978588 -0.14665376,0.3889685000000002 c0.44675030000000016,0.07443334000000003 0.89128768,0.14362124 1.3333116200000001,0.20767298 zm0.6186477400000002,-1.7104095799999999 c0.1445228,-0.4198674200000001 0.28552132,-0.8448436800000003 0.4228043200000001,-1.2746555800000001 l-0.07995198,-0.011050940000000004 c-0.37289068000000025,0.38586768000000027 -0.7375853600000001,0.7787429400000001 -1.09295026,1.17589378 c0.25086590000000014,0.03826166000000002 0.5009121999999997,0.07487046 0.7500979200000002,0.10981274000000003 zm1.9394058200000002,-6.92217768 c0.09531948000000003,-0.4345929000000001 0.18517496,-0.8666860200000003 0.26967572,-1.29596518 c-0.4400978800000001,-0.05752226000000002 -0.8796083800000002,-0.11956598000000006 -1.31843588,-0.18614482000000004 c-0.08641316000000003,0.43248926000000026 -0.17755268000000005,0.8641999000000002 -0.27330928000000015,1.29492702 c0.4493183800000003,0.06836829999999999 0.8900856000000003,0.13072620000000001 1.3220694400000004,0.18718298000000005 zm0.35682652000000026,-1.7477423600000002 c0.08175510000000004,-0.4326941600000001 0.15874286000000004,-0.86633086 0.23075838000000007,-1.3007735 c-0.4349344000000001,-0.05685292000000003 -0.8728057000000004,-0.11880102000000005 -1.3133407000000001,-0.18584430000000013 c-0.07334054000000002,0.43455192000000015 -0.15159868000000007,0.86828424 -0.23463782000000002,1.3010876800000002 c0.4383903800000002,0.06655152000000003 0.8774910800000002,0.1284723 1.3172201399999999,0.18553012000000005 zm0.30424918,-1.7552963400000001 c0.06907862000000005,-0.4381445000000001 0.13251566,-0.87358432 0.19037942000000008,-1.30593698 c-0.43661458000000025,-0.057440300000000014 -0.8726008000000004,-0.11947036000000003 -1.30790402,-0.18615848000000013 c-0.059789820000000035,0.43639602000000016 -0.12468848,0.8720270800000003 -0.19453206000000006,1.30675658 c0.43963344,0.06681105999999999 0.8770812800000003,0.12856792 1.31205666,0.18533888000000007 zm0.2494862400000001,-1.76171654 l0.00042346000000000045,-0.003483300000000002 c-0.40493703999999997,-0.3692981 -0.80659568,-0.7223681200000001 -1.2016019,-1.05586336 c-0.03275668000000002,0.2911629000000001 -0.06784922000000003,0.5820526 -0.10522298000000006,0.8726554400000005 c0.4347704800000001,0.06677008000000006 0.87033324,0.12899138000000013 1.30640142,0.18669122000000005 zm-0.1843143800000001,4.026776760000001 c-0.06507624000000009,0.3318014000000002 -0.13326696000000007,0.6648322000000002 -0.2045585,0.9988874999999998 c0.42214864,-0.3113660400000001 0.84223462,-0.6052472799999999 1.25693856,-0.87824238 c-0.3472508600000002,-0.0367454 -0.6980806400000003,-0.07694678000000002 -1.05238006,-0.12064512000000004 zm-6.5014496799999995,12.94991222 c0.18930028000000013,-0.4072865600000002 0.37510360000000015,-0.82163534 0.5571231000000001,-1.24259556 c-0.12228432000000003,-0.022183840000000007 -0.24450034000000007,-0.04469552000000003 -0.3666344,-0.06757602000000006 c-0.28154626000000016,0.3876161600000002 -0.55086682,0.7715167999999997 -0.8068688799999999,1.1491201800000002 l0.06420200000000004,0.05570548 c0.18394556000000006,0.03567992000000003 0.3680277200000001,0.07077246000000002 0.5521781800000001,0.10534592000000002 zm0.7420521800000001,-1.6756858600000004 c0.11318676000000005,-0.2684326600000001 0.22513046000000006,-0.5402120199999998 0.33579012,-0.8152834400000001 c-0.20000971999999997,0.2573817200000001 -0.39523844,0.5142580200000001 -0.58537198,0.76991858 c0.08316208000000005,0.015285540000000007 0.16636514000000013,0.030407160000000016 0.24958186000000004,0.04536486000000003 zm2.6773873200000002,-7.915765100000001 c0.016897420000000007,-0.06412004000000006 0.03372654000000001,-0.12830838000000006 0.05041906000000003,-0.19251038000000012 c-0.4400842200000002,-0.07107298000000002 -0.8794308000000002,-0.14672206000000004 -1.31797144,-0.22683796000000006 c-0.11102848000000003,0.42410202 -0.22769854000000006,0.8509633600000001 -0.34976430000000025,1.2801605600000001 c0.19378076000000008,0.03573456000000001 0.3875068800000002,0.07054024000000003 0.5810554200000002,0.10437605999999999 c0.1724575,-0.16594168000000012 0.3463766200000003,-0.3306129800000002 0.5215388000000001,-0.49368606000000026 c0.17046314000000007,-0.15870188000000013 0.3421147000000002,-0.3159558000000001 0.51472246,-0.47150222 zm0.1651494000000001,-0.6400256400000005 c0.10805060000000002,-0.4278995000000001 0.21182562,-0.8574518600000003 0.31109284000000015,-1.2884795 c-0.43291272000000025,-0.06932450000000004 -0.8716309400000003,-0.14422228000000006 -1.3158814600000004,-0.22474798000000015 c-0.09918526000000008,0.42774924 -0.20341106000000006,0.85698742 -0.31275936000000015,1.2874003600000001 c0.4383903800000002,0.07982904000000003 0.8776003600000003,0.15515028000000006 1.31754798,0.22582712000000005 zm0.41301010000000016,-1.7385491800000001 c0.0957429400000001,-0.43024902000000004 0.1869917400000001,-0.8618913600000003 0.27356882000000016,-1.29479042 c-0.4369424200000001,-0.06950208000000006 -0.8748137199999999,-0.14379882000000005 -1.31329972,-0.22290388000000014 c-0.08670002000000006,0.4295113800000001 -0.1786045,0.8609897999999999 -0.27569978,1.2941484 c0.43684680000000026,0.07894114000000003 0.87544208,0.1534427800000001 1.31543068,0.22354590000000013 zm0.3620173200000001,-1.74599388 c0.08314842000000003,-0.4328444200000001 0.1615021800000001,-0.8665904000000002 0.23496566000000005,-1.3011833 c-0.43414212,-0.06926986000000003 -0.8707157200000002,-0.1434983000000001 -1.3094339400000001,-0.22272630000000013 c-0.07455628000000003,0.4345109400000001 -0.15389355999999998,0.8681749599999999 -0.23791622000000004,1.30096474 c0.4408082000000002,0.07952852000000003 0.87836532,0.15382526000000005 1.3123845,0.22294486000000013 zm0.3098497800000002,-1.7550914400000004 c0.06999384000000006,-0.4352895600000002 0.13498812000000004,-0.8711255200000003 0.19475061999999999,-1.30731664 c-0.4315740400000001,-0.06933816000000002 -0.86642648,-0.14370320000000006 -1.30422948,-0.22320440000000014 c-0.06063674000000003,0.43233900000000014 -0.12688774,0.8684754800000002 -0.19880764000000004,1.3080816 c0.43785764000000016,0.07910506000000002 0.87406242,0.15322422000000005 1.3082865000000001,0.22243944000000018 zm0.25534638000000015,-1.7636152800000002 c0.04940822000000002,-0.3843924000000002 0.09473210000000008,-0.76900336 0.13586236000000004,-1.15373726 c-0.08467834000000003,-0.06929718000000006 -0.16900152000000004,-0.13761083999999998 -0.2528875800000001,-0.20490000000000005 c-0.11908788000000002,-0.01976602000000001 -0.23194680000000006,-0.03883538000000002 -0.3384674800000002,-0.05719442000000002 c-0.2149401000000001,-0.03703226000000002 -0.4448379000000001,-0.07802592000000005 -0.6898436600000004,-0.12295366 c-0.04655328000000003,0.4341148000000002 -0.09900768000000006,0.87281936 -0.15741784000000011,1.31570388 c0.4351119800000001,0.07913238000000003 0.86947266,0.1534564400000001 1.3027542,0.22308146000000006 zm-0.5735560799999998,5.7860071799999995 c-0.09907598000000009,0.4306998 -0.20267342000000002,0.86036144 -0.3106420600000001,1.28880734 l0.01924694,0.002936900000000001 c0.45523315999999986,-0.3938041400000002 0.91491948,-0.7740165799999996 1.37482436,-1.13632076 c-0.3634789400000002,-0.04890280000000002 -0.7247176399999999,-0.10070152000000003 -1.08342924,-0.1554234800000001 zm-3.51829692,4.34868832 c0.1348925,-0.42606906000000017 0.26421172,-0.8501301 0.3877254400000001,-1.27173234 c-0.43625942,-0.08407730000000002 -0.8728876600000002,-0.17296292000000008 -1.3094339400000001,-0.26669783999999996 c-0.12553540000000007,0.4274487200000001 -0.25479998,0.8507311399999999 -0.38756152000000016,1.2696150400000001 c0.43229802000000006,0.09348904000000004 0.8687896600000002,0.18313962 1.30927002,0.26881514 zm0.5159655200000001,-1.7159145599999999 c0.11832292000000007,-0.41590602000000015 0.23484271999999998,-0.8424121999999997 0.3494091400000001,-1.27935462 c-0.43977004000000014,-0.08354456000000003 -0.87600214,-0.17110516 -1.3084367600000002,-0.2625452 c-0.11299552000000006,0.4291015800000001 -0.22978852000000005,0.8545422800000001 -0.35025606000000015,1.2761172 c0.4364779800000002,0.09344806000000003 0.8730652400000002,0.18204682000000008 1.30928368,0.26578262 zm0.46474052000000005,-1.7255995 c0.10970346000000003,-0.43085006000000026 0.21416148000000013,-0.8598970000000002 0.31344236000000025,-1.28681298 c-0.4393056000000002,-0.08279326000000009 -0.87511424,-0.16960255999999999 -1.30715272,-0.26027764 c-0.0996906800000001,0.42667010000000016 -0.20449020000000004,0.85515698 -0.31443954,1.28516012 c0.4322843600000002,0.09124880000000002 0.8684071800000001,0.17863182000000002 1.3081499,0.2619305 zm0.4160426200000001,-1.735503 c0.09749142000000009,-0.433705 0.18961446000000007,-0.8650878000000002 0.27636912,-1.29384788 c-0.43873188,-0.08236979999999999 -0.8738985000000002,-0.16872832000000007 -1.3052812999999999,-0.25891164 c-0.08735570000000006,0.4287600800000001 -0.17995684000000006,0.8598150400000003 -0.2778170800000001,1.29287802 c0.4318199200000002,0.09055214000000007 0.8674919600000002,0.17723850000000005 1.30672926,0.2598815000000001 zm0.3658557800000002,-1.74501036 c0.08415926000000003,-0.4327624600000001 0.16366046000000006,-0.8664811200000001 0.2380664800000001,-1.30103304 c-0.43793960000000015,-0.08226052000000006 -0.8721910000000004,-0.16848244000000015 -1.3025493,-0.2584608600000001 c-0.07463824000000006,0.4308090800000001 -0.15467218000000008,0.8644731 -0.24014280000000007,1.30067788 c0.43123254,0.0901969800000001 0.8661806000000003,0.17654184000000006 1.3046256200000004,0.2588160200000001 zm0.3139751000000001,-1.7547499400000004 c0.07168768,-0.4391143600000002 0.13773378000000006,-0.87544208 0.19813830000000013,-1.30857336 c-0.4368058200000001,-0.08247908000000002 -0.8698414800000004,-0.16883760000000006 -1.29890208,-0.25895262 c-0.06134706000000003,0.4331039600000001 -0.12830838000000006,0.8694863199999998 -0.20087030000000003,1.30881924 c0.4303583000000002,0.09018332000000005 0.86432284,0.17648720000000004 1.30163408,0.25870674 zm0.2598541800000001,-1.7649949400000002 c0.05797304000000002,-0.4425157000000001 0.11004496000000002,-0.88153444 0.15625674000000006,-1.31660544 c-0.4353168800000003,-0.08302548000000005 -0.8668909200000002,-0.16993040000000012 -1.2945035599999999,-0.26056450000000014 c-0.04731824000000003,0.4353168800000003 -0.10051028000000002,0.8746771200000003 -0.1595488000000001,1.3176436 c0.42915622000000014,0.09045652000000005 0.86186404,0.17700628000000013 1.29779562,0.25952634 zm0.20300126000000004,-1.7759229399999996 c0.010777740000000006,-0.11071430000000003 0.021173000000000008,-0.22119638000000014 0.031185780000000014,-0.33136428000000023 c-0.4360955,-0.3037984 -0.85328556,-0.56960834 -1.24561442,-0.7912555 c-0.02370010000000001,0.28515250000000014 -0.04995462000000002,0.57227204 -0.0788182,0.861263 c0.4275989800000002,0.09101658000000006 0.8587905400000003,0.17818104 1.2932468400000001,0.2613567800000001 zm0.46461758000000014,-0.02148718000000001 l-0.010354280000000004,0.10673924000000005 l0.028330840000000006,0.0052181200000000014 c0.05787742000000002,0.010613820000000003 0.11680666000000003,0.021336920000000016 0.17674674000000004,0.032141980000000014 c-0.06524016000000003,-0.04877986000000003 -0.13015248000000001,-0.0967947600000001 -0.19472330000000013,-0.1440993400000001 zm-2.1629927,11.05311194 c-0.05024148000000001,0.17211600000000005 -0.10075616000000004,0.34251084000000026 -0.15148940000000014,0.5111981800000001 c0.15010974000000005,-0.15267782 0.3017767200000001,-0.3046726400000001 0.4548097000000001,-0.4557659 c-0.10108400000000002,-0.01822244 -0.20218165999999993,-0.03670442 -0.30332030000000026,-0.055432280000000014 zm-4.3973862200000005,5.709948300000001 c0.14874374000000007,-0.3533159000000001 0.29513796000000014,-0.7118089400000003 0.4390324000000001,-1.0752469 c-0.4336776800000001,-0.10152111999999999 -0.8644867599999998,-0.20729050000000004 -1.29207208,-0.3170486000000001 c-0.09021064000000009,0.22835422000000005 -0.1814594400000001,0.4549599600000001 -0.27369176,0.6797216000000006 c0.25525076,0.27373274 0.5124002599999998,0.5422883399999998 0.7701781200000001,0.80492916 c0.09974532000000008,0.024492380000000008 0.1745065,0.04271482000000003 0.22334100000000007,0.05443510000000003 l0.03639024000000001,0.008674100000000004 c0.031786820000000014,-0.05160748000000003 0.06405174000000004,-0.10344718000000001 0.09682208000000005,-0.1554644600000001 zm0.6084847,-1.5085420999999997 c0.15837404000000005,-0.41004588000000014 0.31356530000000016,-0.8261567999999997 0.4653279000000001,-1.2480322400000001 c-0.4356174000000001,-0.09975898000000004 -0.8674919600000002,-0.20353400000000005 -1.2953504800000002,-0.31114748000000014 c-0.15084738000000011,0.4198264400000002 -0.3052327,0.8344484200000002 -0.46296472000000016,1.24356542 c0.42501724,0.10866530000000002 0.8560995200000002,0.21394292000000006 1.2929873,0.3156143000000001 zm0.6206011200000002,-1.6851385800000003 c0.14655814000000006,-0.41775012 0.28841724,-0.83718042 0.4256046200000001,-1.25811332 c-0.43649164,-0.09813344000000009 -0.86909018,-0.2002556 -1.29754974,-0.3061889000000002 c-0.13675026,0.4197035 -0.27803564,0.8379044000000002 -0.42403372,1.2544797600000002 c0.4270662400000001,0.10698511999999999 0.85915936,0.21030936000000008 1.29597884,0.3098224600000003 zm0.56717686,-1.6981838800000002 c0.13278885999999998,-0.4182009000000001 0.26216272,-0.8412647600000001 0.38790302000000015,-1.26889106 c-0.43313128,-0.09631666000000007 -0.86603034,-0.1974416400000001 -1.29827372,-0.30337494000000026 c-0.12556272000000002,0.42671108 -0.25481364,0.8492012200000002 -0.38756152000000016,1.2672245400000002 c0.42799512,0.10545520000000004 0.8607302600000003,0.20718122 1.2979322199999999,0.3050414600000001 zm0.51637532,-1.71189852 c0.12035826,-0.4207280000000001 0.23717858,-0.84577256 0.35028338000000014,-1.27484682 c-0.4370926800000001,-0.09572928000000008 -0.8701829799999997,-0.19537898000000006 -1.2989294,-0.2987851800000001 c-0.11284526000000003,0.4273940800000001 -0.2294606800000001,0.8510863 -0.3496550200000001,1.27084444 c0.4322024000000001,0.10575572000000005 0.8651151200000001,0.20667580000000002 1.2983010400000001,0.3027875600000001 zm0.4660109000000001,-1.7202994200000004 c0.10999032000000003,-0.4297299400000001 0.2148035,-0.85801192 0.3145215000000001,-1.2845864 c-0.4369560800000002,-0.09497798000000003 -0.8699097800000003,-0.19391736000000015 -1.29860156,-0.29661324 c-0.09984094000000006,0.4259734400000001 -0.20474974000000004,0.8536680400000003 -0.31476738000000015,1.28275596 c0.4286781200000001,0.10332424000000005 0.8617137800000001,0.20286466 1.29884744,0.2984436800000001 zm0.4175588800000002,-1.7327983200000001 c0.09783292000000006,-0.43289906000000017 0.19037942000000008,-0.8638720599999999 0.27766682000000015,-1.29261848 c-0.43665556000000016,-0.09456818000000006 -0.8692677600000001,-0.19305678000000007 -1.2975634,-0.2952745600000002 c-0.08761524000000008,0.4283639400000001 -0.18040762000000005,0.8589408000000004 -0.2784591,1.29140274 c0.4285278600000002,0.10265490000000002 0.8614132600000001,0.20155330000000007 1.29835568,0.29649030000000015 zm0.36775452000000014,-1.7437673 c0.08537500000000003,-0.4361228200000002 0.16529966000000007,-0.8698278200000003 0.23980130000000008,-1.3006915399999999 c-0.4362184400000001,-0.09447256000000004 -0.86827058,-0.19282456 -1.2958832200000001,-0.29487842000000025 c-0.07495241999999998,0.4307134600000001 -0.15527322000000007,0.86415892 -0.24100338000000013,1.3000358600000004 c0.42821368000000015,0.10235438000000001 0.8606483000000001,0.20092494000000005 1.2970853,0.2955341 zm0.3165295200000001,-1.75491386 c0.07249362000000006,-0.43977004000000014 0.13930468000000001,-0.87626168 0.20044684000000013,-1.3090924400000001 c-0.4355900800000001,-0.09475942000000007 -0.8668909200000002,-0.19334364000000004 -1.2936703,-0.2956024000000001 c-0.06171588000000003,0.4331859200000001 -0.12905968,0.8696775600000002 -0.20201774000000003,1.3090924400000001 c0.42772192000000014,0.10240902 0.8595691599999998,0.2009932400000001 1.2952412,0.2956024000000001 zm0.26311892000000014,-1.76649754 c0.058929240000000015,-0.44359484000000016 0.11187540000000004,-0.88314632 0.15885214000000006,-1.3182719600000001 c-0.4346612,-0.09541510000000003 -0.8650741399999999,-0.19464134000000013 -1.2909519600000001,-0.29755578000000016 c-0.04772804000000001,0.4358086400000002 -0.10132988000000001,0.8756879599999999 -0.16081918000000012,1.3191871800000001 c0.4270252600000002,0.10275052000000003 0.8580938800000002,0.2016899 1.292919,0.2966405600000001 zm0.20655286,-1.77891448 c0.033275760000000015,-0.3359950200000001 0.06298626000000003,-0.6692034000000002 0.08910418000000006,-0.9994612199999997 c-0.4158787000000002,-0.2086565 -0.81699094,-0.36700322 -1.2749014600000002,-0.46706272000000015 c-0.02998370000000001,0.3856218000000001 -0.06473474000000008,0.7750001000000001 -0.10430776,1.16782072 c0.4260280800000002,0.10340620000000003 0.85616782,0.20302858000000001 1.29010504,0.29870322 zm-2.24458388,12.74882336 c-0.1370781,0.42141100000000015 -0.27873230000000004,0.84129208 -0.4250445600000001,1.25957494 c0.1774434000000001,0.039053940000000016 0.35565176000000015,0.07749318000000004 0.5345840999999998,0.11527674000000009 c0.3216383600000001,-0.3804446600000002 0.6581114800000002,-0.7623372800000001 1.0066463799999998,-1.1427956000000001 c-0.37461184000000014,-0.07441968 -0.74673756,-0.15180358000000005 -1.11618592,-0.23205608000000005 zm-0.58008556,1.6972413400000006 c-0.11989382000000005,0.3342192200000001 -0.24197324000000003,0.6649961200000002 -0.36615630000000016,0.99222142 c0.2294470200000001,-0.3021592 0.4707645800000001,-0.6074875200000001 0.7224910600000002,-0.9144277199999997 c-0.11903324000000008,-0.025626160000000005 -0.2378206,-0.05155284000000003 -0.35633476000000025,-0.07779370000000009 zm-2.99587022,1.56931544 c0.056934880000000014,-0.14034284000000005 0.11350094000000006,-0.2814779600000002 0.16969818000000012,-0.42341902000000015 c-0.24251964000000004,-0.06420200000000004 -0.4833044600000002,-0.12953778000000005 -0.7222998200000003,-0.19598002000000006 c0.18252492,0.20884774000000003 0.3668939400000001,0.4154006000000002 0.5526016400000002,0.6193990400000002 zm0.3384128400000002,-0.85478816 c0.15752712000000005,-0.40775100000000003 0.31195342000000015,-0.8217446200000003 0.4630740000000001,-1.24165302 c-0.42855518000000015,-0.11119240000000007 -0.8558946200000004,-0.2269882200000001 -1.2819090400000002,-0.3475787000000003 c-0.14985020000000004,0.4177637800000001 -0.30310174,0.8300908800000002 -0.45949508,1.2366671200000001 c0.42164322000000004,0.12136910000000002 0.8478625399999998,0.23898170000000005 1.2783301200000001,0.3525646000000002 zm0.6178008200000003,-1.67698356 c0.14605272,-0.4160562800000001 0.28743372,-0.8337517600000003 0.4242522800000001,-1.25292252 c-0.4329263800000002,-0.11045476000000003 -0.86148156,-0.22480262 -1.28529672,-0.3428250200000002 c-0.13711908000000006,0.42119244 -0.27772146000000014,0.8375765599999998 -0.4216295600000002,1.24887916 c0.42626030000000015,0.12037192000000002 0.8538456200000005,0.23599016000000006 1.282674,0.34686838000000036 zm0.565524,-1.69146316 c0.13276154,-0.41750424 0.26209442,-0.8397894800000002 0.3877664200000001,-1.26658252 c-0.4299894800000002,-0.10880190000000002 -0.85915936,-0.22239846000000013 -1.2871135,-0.3408170000000002 c-0.12527586,0.42617834000000016 -0.25417162,0.8479854800000002 -0.3865097000000001,1.2651755400000002 c0.42336438000000026,0.11776286000000004 0.85208348,0.23189215999999999 1.28585678,0.3422239800000002 zm0.5162523799999998,-1.70885234 c0.12004408000000003,-0.41897952000000016 0.23655021999999998,-0.8421799799999999 0.34938182000000023,-1.26932818 c-0.4344153200000001,-0.10818720000000004 -0.8642272200000002,-0.22021286000000007 -1.28914884,-0.33592672000000023 c-0.11227154000000006,0.4254407000000001 -0.22821762000000004,0.8470702600000003 -0.34766066000000023,1.2646564599999999 c0.42799512,0.11837755999999999 0.85727428,0.23187850000000002 1.28742768,0.3405984400000001 zm0.46521862,-1.71434366 c0.11001764000000004,-0.4289786400000002 0.21488546000000006,-0.85645468 0.3146307800000001,-1.28210028 c-0.4360818400000001,-0.10787302000000003 -0.86757392,-0.21961182 -1.2941893800000002,-0.33507980000000026 c-0.09855690000000006,0.4248260000000002 -0.20214068000000004,0.8519059000000002 -0.31073768,1.2809665000000001 c0.4252358,0.11583680000000003 0.8554301799999998,0.22795808000000012 1.2902962800000002,0.3362135800000001 zm0.4179140400000001,-1.73020292 c0.09799684000000008,-0.4324619400000001 0.19073458000000007,-0.8629295200000002 0.27817224,-1.2910612399999999 c-0.43717464000000017,-0.10776374000000008 -0.8696912200000004,-0.2193932600000001 -1.2972219,-0.3347519600000001 c-0.08683662000000006,0.42743506000000014 -0.17880940000000006,0.85761578 -0.27600030000000014,1.2902552999999999 c0.4268067000000002,0.11563190000000007 0.85857198,0.22756194000000013 1.29504996,0.3355579000000002 zm0.36864242,-1.7426745000000001 c0.08562088000000004,-0.43598622000000026 0.1657641000000001,-0.8694590000000002 0.24048430000000007,-1.29999488 c-0.43769372,-0.10788668000000004 -0.8705518000000002,-0.21963914000000004 -1.29828738,-0.33507980000000026 c-0.07451529999999999,0.4299758200000001 -0.15438532000000005,0.8632710200000002 -0.23970568000000006,1.29957142 c0.42769460000000015,0.11564556000000004 0.8603067999999997,0.22754828000000019 1.2975087600000001,0.3355032600000002 zm0.3176359800000001,-1.7553236600000002 c0.07275316000000003,-0.4398520000000002 0.13982376,-0.8764256000000002 0.20123912000000005,-1.30939296 c-0.4338006200000002,-0.10736760000000002 -0.86642648,-0.21940692000000006 -1.29774098,-0.33632286000000033 c-0.06170222000000003,0.43321324 -0.12890942000000005,0.8698551400000002 -0.20164892,1.3095842000000002 c0.4280224400000001,0.11589144000000007 0.86086686,0.22799906000000011 1.29815078,0.33613162 zm0.2644029600000002,-1.76832798 c0.05924342000000002,-0.4441275800000002 0.11249010000000004,-0.8842254600000001 0.1597673600000001,-1.3199248200000002 c-0.43684680000000026,-0.10902046000000003 -0.8688579599999999,-0.22189304000000007 -1.2956373399999999,-0.3383582000000002 c-0.048001240000000014,0.43623210000000007 -0.10178066000000002,0.8766305000000002 -0.16139290000000006,1.3208127200000004 c0.4311642400000001,0.11725744000000003 0.86362618,0.22972022000000003 1.2972628800000001,0.3374703000000002 zm0.20787788000000001,-1.78231582 c0.03802944000000001,-0.3819199400000001 0.07142814000000003,-0.7602473000000002 0.10023707999999999,-1.1347635200000001 c-0.4304539200000001,-0.05459902000000004 -0.87240956,-0.057563240000000016 -1.3191871800000001,-0.0148211 c-0.023017100000000016,0.26815946 -0.04826078,0.53808106 -0.07578568000000004,0.80973748 c0.42686134000000014,0.11713450000000006 0.8585446600000002,0.23049884000000007 1.2947357800000001,0.3398471400000001 zm-5.39354172,14.90781368 c0.13247468,-0.3471689000000002 0.2625725200000001,-0.6985314200000002 0.3902525400000001,-1.05388266 c-0.42787218000000027,-0.12477044000000007 -0.85071748,-0.25337934 -1.2682627000000002,-0.3856354600000001 c-0.026268180000000016,0.07353178000000003 -0.052672960000000046,0.14692696000000005 -0.07915970000000003,0.22018554 c0.3075549000000002,0.4110703800000001 0.6277453000000005,0.818234 0.95716986,1.21933258 zm0.5443373399999998,-1.48817504 c0.14388078,-0.4106605800000001 0.2844421800000001,-0.82647098 0.4215202800000002,-1.247158 c-0.42959334000000005,-0.12324052000000003 -0.85392758,-0.25026486000000014 -1.27266122,-0.38085446000000023 c-0.13561648000000007,0.41809162 -0.27507142,0.8325087000000001 -0.4181326,1.24293706 c0.4169715000000001,0.13184632000000004 0.8401582999999999,0.26026398 1.2692735400000001,0.3850754000000001 zm0.5623412200000003,-1.6849200200000005 c0.13236540000000008,-0.4170124800000002 0.26127482,-0.8386010600000002 0.3865233600000002,-1.2645062 c-0.42669742,-0.12161498000000003 -0.8520425,-0.24812024000000005 -1.2755981200000002,-0.3794748000000002 c-0.12363666000000006,0.4224081800000002 -0.25165818,0.84354598 -0.3842831200000001,1.26322216 c0.4187609600000001,0.1305213 0.8433137599999998,0.25751832 1.27335788,0.38075884000000015 zm0.5147088000000003,-1.7065028199999999 c0.11932010000000005,-0.4170534600000001 0.2350886,-0.8380956400000001 0.3471552400000001,-1.26289432 c-0.42773558,-0.12001676000000003 -0.85410516,-0.24478720000000004 -1.2790131200000001,-0.37450256000000026 c-0.11132900000000003,0.42355562 -0.22614130000000013,0.8428766400000002 -0.34427298000000023,1.25771718 c0.4236102600000001,0.13142286 0.8491329200000001,0.2579691 1.27613086,0.3796797000000001 zm0.46228172,-1.7081146999999999 c0.10828282000000003,-0.4282819800000001 0.21160705999999999,-0.8551706400000002 0.31002736000000025,-1.2803654599999998 c-0.42699794,-0.11907422000000009 -0.8526298800000004,-0.24291578000000014 -1.27681386,-0.3716203000000001 c-0.09895304000000003,0.4241839800000001 -0.20293296000000005,0.8500344799999999 -0.31195342000000015,1.27725098 c0.42478502000000007,0.12985196000000002 0.8510999600000002,0.2546907 1.27873992,0.3747347800000001 zm0.4122041600000001,-1.72916476 c0.09672646000000008,-0.4319838400000001 0.1883440800000001,-0.8621099200000002 0.2749211600000001,-1.2900504000000002 c-0.4262056600000001,-0.11852781999999999 -0.8511136200000001,-0.24176834000000014 -1.2745326399999999,-0.3698854800000002 c-0.08694590000000003,0.42727114000000005 -0.17902796,0.8567005599999999 -0.27631448000000025,1.28796042 c0.42385614000000016,0.12886844000000006 0.8492285400000001,0.25281928000000015 1.2759259600000001,0.37197546000000026 zm0.3647629800000001,-1.74275646 c0.08368116000000003,-0.42990752000000015 0.16223982000000006,-0.85752016 0.2357033000000001,-1.2824691000000001 l0.002950560000000002,-0.017156960000000016 c-0.4293884400000002,-0.11947036000000003 -0.85387294,-0.24279284000000007 -1.2731529799999999,-0.3697488800000001 c-0.07503438000000003,0.43377330000000014 -0.15489074000000005,0.86671334 -0.23940516000000006,1.2987518200000001 c0.4232004600000001,0.12840400000000005 0.8478898600000003,0.2518904 1.27390428,0.3706231200000001 zm0.3156689400000001,-1.7564574400000001 c0.07250728000000002,-0.4403164400000002 0.13938664,-0.87712226 0.20067906,-1.3100349800000002 c-0.4291015800000001,-0.11989382000000005 -0.8534494800000002,-0.24369440000000006 -1.27275684,-0.37118318000000017 c-0.06129242000000003,0.4335547400000001 -0.12818544,0.8705518000000002 -0.20074736000000007,1.3105404 c0.41859704000000003,0.1271063 0.84298592,0.25072930000000004 1.2728251400000001,0.3706777600000002 zm0.26399316,-1.7705818800000002 c0.05929806000000003,-0.4449608400000002 0.11261304000000005,-0.88561878 0.16005422000000005,-1.32163232 c-0.42993484000000015,-0.12094564000000005 -0.8544193400000001,-0.24559314000000007 -1.2731393199999999,-0.3737102800000001 c-0.047290920000000014,0.43699706000000016 -0.10049662000000004,0.87816042 -0.15965808000000006,1.3231076000000002 c0.4183648200000002,0.12758440000000001 0.8426990600000002,0.25171282 1.27274318,0.372235 zm0.20856088000000006,-1.7863591799999998 c0.020899800000000003,-0.20897068000000005 0.040392620000000046,-0.4168349000000001 0.058533100000000046,-0.62353802 c-0.4027787600000001,0.06610074000000006 -0.7995334599999997,0.1657504400000001 -1.1876413799999999,0.2918185800000002 c0.372235,0.11348728000000002 0.7486909400000002,0.22410596000000008 1.12910828,0.33171944000000014 zm-4.81188526,13.359261440000001 c0.14205034000000005,-0.40775100000000003 0.2812047600000001,-0.8215943600000001 0.41721738,-1.24129786 c-0.4260554000000001,-0.13668196000000002 -0.84607308,-0.2770931 -1.2597388600000001,-0.4209465600000002 c-0.06864150000000006,0.21332821999999999 -0.13814358000000004,0.42529044 -0.20847892,0.6358593400000002 c0.1827708,0.29005644 0.37399714000000006,0.5797304000000002 0.5725589,0.86828424 c0.15849698000000015,0.053205700000000015 0.31800480000000025,0.10590598000000002 0.4784415,0.15810084000000005 zm0.5572187200000001,-1.6789369399999998 c0.13248834000000004,-0.4194849400000002 0.26052352,-0.8403495400000003 0.38410554,-1.26253916 c-0.42336438000000026,-0.13508374 -0.8447753800000002,-0.27505776000000015 -1.2638232,-0.41996304 c-0.12248922000000002,0.42172518000000014 -0.24949990000000014,0.84215266 -0.3808954400000001,1.26120048 c0.4137067600000001,0.14396274000000006 0.8340386200000003,0.2844695000000001 1.2606131,0.42130172000000016 zm0.5117992200000002,-1.7048089800000001 c0.11824096000000003,-0.41525034 0.23282104,-0.83391568 0.3435626600000003,-1.25572282 c-0.42895132,-0.1347559 -0.85187858,-0.2732 -1.26844028,-0.4151683800000001 c-0.10989470000000007,0.4211787800000002 -0.22319074000000005,0.8380136800000001 -0.3397242000000002,1.25028614 c0.41915710000000006,0.1451375 0.8408549599999999,0.2853300800000001 1.26460182,0.42060506000000014 zm0.45885306000000015,-1.70139398 c0.10885654000000003,-0.42717552000000014 0.21257692,-0.85276648 0.3112431,-1.27648602 c-0.4298528800000002,-0.13423682 -0.8538046400000002,-0.27227112 -1.27151378,-0.41385702 c-0.09794220000000009,0.4234600000000001 -0.20081565999999998,0.8483133199999998 -0.3086613600000001,1.2742321200000002 c0.41665732,0.14230988000000006 0.8397621599999998,0.28109548 1.2689320400000001,0.4161109200000001 zm0.4141712,-1.7259546600000002 c0.0970952800000001,-0.43136914000000015 0.1888904800000001,-0.8606756200000005 0.27544024,-1.2875916 c-0.43072712,-0.13412754 -0.8555258000000002,-0.2720525600000001 -1.27402722,-0.4135018600000001 c-0.08603068000000005,0.4269569600000002 -0.1771702,0.85581266 -0.27339124,1.28618462 c0.4175998600000001,0.14188642 0.8416882200000002,0.28026222 1.27197822,0.4149088400000001 zm0.3656645400000001,-1.7414724199999998 c0.08415926000000003,-0.4320658000000001 0.16363314000000007,-0.86503316 0.23823040000000006,-1.29884744 c-0.4310413,-0.13435976 -0.8563863799999998,-0.27258530000000014 -1.2756391,-0.4144444000000001 c-0.07351812,0.42966164 -0.15248658000000007,0.8625743600000001 -0.23689172,1.298383 c0.41840580000000016,0.14191374000000007 0.8432864400000001,0.2803032000000001 1.27430042,0.4149088400000001 zm0.3151771800000001,-1.7570858 c0.07215212000000003,-0.44041206000000027 0.13856704000000006,-0.8776003600000003 0.19931306000000007,-1.3111824200000002 c-0.4312462,-0.13497446000000007 -0.8569601,-0.2738283600000002 -1.2767182400000001,-0.4163704600000002 c-0.06043184000000003,0.4334454600000001 -0.1265599,0.87085232 -0.19842516000000007,1.31181078 c0.41866534,0.14213230000000004 0.8440514000000002,0.2807813 1.27583034,0.41574210000000006 zm0.2620807600000002,-1.77339584 c0.05973518000000002,-0.45411303999999997 0.11320042000000007,-0.9040870999999998 0.16043670000000013,-1.34945774 c-0.005955760000000003,-0.005846480000000004 -0.011556360000000009,-0.011966160000000003 -0.016815460000000008,-0.018372700000000006 c-0.4850256200000001,0.19849346000000015 -0.9619372,0.4390870400000001 -1.4224704400000001,0.7142404200000002 l0.002049000000000001,0.23558036000000004 c0.4186926600000001,0.14285628000000006 0.8444065599999998,0.2822565800000001 1.2768002,0.4180096600000001 zm-4.2509236999999995,10.54209134 c0.0298471,-0.09127612000000006 0.05953028000000002,-0.1827708 0.08902222000000008,-0.2744703800000001 c-0.10503174000000005,-0.03753768000000003 -0.20965367999999993,-0.07533490000000002 -0.3138111800000002,-0.11333702000000002 c0.07304002000000002,0.1292236 0.14801976000000006,0.2585155 0.22478896000000007,0.3878074000000002 zm0.22813566000000005,-0.7126148800000002 c0.1312452800000001,-0.4187609600000001 0.25794178,-0.8389562199999999 0.38025342,-1.2604082 c-0.4200859800000002,-0.14933111999999998 -0.8376038800000002,-0.3036344800000001 -1.25210292,-0.4630057 c-0.07633208000000002,0.26571432 -0.15362035999999998,0.52820488 -0.23175556,0.7874170399999999 c0.10001852,0.21528160000000005 0.20634796000000005,0.4313145000000002 0.3185102200000001,0.6478391600000002 c0.2588023600000001,0.09742312000000006 0.52054162,0.19349390000000014 0.7850948400000003,0.2881577 zm0.5071138399999998,-1.70355226 c0.11504452000000005,-0.40757342 0.22655110000000006,-0.81826132 0.3343148400000002,-1.2317905 l0.00427558,-0.016473960000000013 c-0.4262056600000001,-0.14934478000000007 -0.84545838,-0.3023367800000002 -1.25738934,-0.45875743999999996 c-0.10717636000000003,0.41541426000000026 -0.21862830000000008,0.82966742 -0.3342055600000001,1.24282778 c0.41463563999999997,0.15978102000000005 0.83245406,0.3144805200000002 1.25300448,0.46419412 zm0.4532388,-1.69528796 c0.10775008000000003,-0.4264652000000001 0.21032302,-0.8510316600000002 0.30778712,-1.2733852 c-0.4275033600000001,-0.14901694000000007 -0.8482313600000001,-0.3017494 -1.26174688,-0.4579924800000001 c-0.0965352200000001,0.42273602000000005 -0.19789242000000007,0.8465102000000001 -0.3040989200000001,1.27102202 c0.41208122,0.15699438000000018 0.8315524999999998,0.3105327800000001 1.25805868,0.4603556600000001 zm0.41011418000000016,-1.72435644 c0.09612542000000009,-0.43110960000000015 0.18686880000000008,-0.8597877199999999 0.2722847800000001,-1.28573384 c-0.42882838000000023,-0.14907158 -0.8507994400000005,-0.3018586800000002 -1.2654760600000001,-0.4581564 c-0.08521108000000006,0.4290196200000001 -0.17501192000000004,0.85713768 -0.26927958,1.28425856 c0.4134199000000001,0.15674850000000007 0.8343937800000001,0.3100137000000001 1.26247086,0.45963168000000004 zm0.3619080400000001,-1.74170464 c0.08379044000000009,-0.4351393 0.16215786000000001,-0.8681203200000002 0.23512958,-1.2985879 c-0.4295387000000001,-0.1494950400000001 -0.8524386399999999,-0.3027875600000001 -1.26829002,-0.459659 c-0.07220676000000004,0.4299211800000001 -0.14979556000000005,0.8627109599999999 -0.23279371999999998,1.29802784 c0.4146219800000001,0.1569670600000001 0.8367433000000002,0.3104508200000001 1.2659541600000002,0.46021906000000007 zm0.3112704200000001,-1.75888892 c0.07104566000000002,-0.4404393800000001 0.13644974000000007,-0.8780784600000001 0.19623956000000006,-1.3125620800000002 l-0.21093772000000005,-0.08286156000000003 c-0.28274834000000004,0.1984661400000001 -0.55700016,0.40949948 -0.82050156,0.6310783400000003 c-0.12643696000000001,0.10634310000000002 -0.25034682,0.21506304000000007 -0.3715246800000003,0.32595492000000026 c0.3953067400000002,0.14931746000000007 0.7976757000000003,0.2955204400000001 1.2067244000000001,0.4383903800000002 zm-3.4325257799999997,7.03311054 c0.02925972000000001,-0.10011414000000003 0.05824624000000001,-0.20021461999999998 0.08694590000000003,-0.3003151000000001 c-0.08023884000000003,-0.03167754000000003 -0.16032742000000005,-0.06355998 -0.24030672,-0.09562000000000008 c0.04842470000000001,0.1315184800000001 0.09958140000000007,0.26351506 0.15336082,0.39593510000000015 zm0.21267254,-0.74516666 c0.11492158000000004,-0.4125729800000002 0.22559490000000007,-0.8263753600000001 0.33222486000000023,-1.24117492 c-0.380431,-0.1485525 -0.7543871600000001,-0.3000009200000001 -1.121486,-0.454195 c-0.013892220000000007,0.366771 0.021992600000000008,0.7258514200000002 0.11370584000000003,1.07164066 c0.03495594000000001,0.13184632000000004 0.07324491999999999,0.2644166200000001 0.11444348000000003,0.39757430000000027 c0.18630874000000003,0.07644136 0.3733551200000001,0.1518172400000001 0.56111182,0.22615496000000004 zm0.4460126600000002,-1.69046598 c0.10622016000000006,-0.4257822000000001 0.2071539,-0.8492285400000001 0.3028968400000001,-1.27005216 c-0.3876025000000001,-0.15057418000000006 -0.7685799000000002,-0.3042082000000001 -1.14264534,-0.4607244800000001 c-0.16897420000000013,0.41673928 -0.28830796000000025,0.8345577000000001 -0.35002384000000014,1.24594226 c0.38887288000000036,0.16478058000000007 0.78560026,0.3264603400000001 1.18977234,0.4848343800000001 zm0.4042677,-1.7233455999999998 c0.09378956000000004,-0.42699794 0.18300302000000004,-0.85503404 0.26761306,-1.2839307199999999 c-0.2235185800000001,-0.08663172000000009 -0.44485156000000026,-0.17424696000000006 -0.6638896600000004,-0.26287304 c-0.2550322,0.3661016600000001 -0.47730772000000016,0.74117794 -0.66095276,1.11990144 c0.34632198000000036,0.14478234000000006 0.6988319400000002,0.2871332 1.05722936,0.4269023200000001 zm0.35632110000000017,-1.7429067200000001 c0.05959858000000003,-0.3148903200000001 0.11631490000000004,-0.6283736600000002 0.17017628,-0.94034074 c-0.22832690000000005,0.24437740000000008 -0.4429664800000002,0.49629512 -0.6418287600000002,0.7537861200000001 c0.15606550000000005,0.06268574000000006 0.3132921,0.12486606000000003 0.4716524800000001,0.18655462 zm35.84088944,30.840537159999997 c-0.43578132,0.3935172800000002 -0.9238667799999999,0.7614084000000002 -1.4290272400000001,1.06007064 c0.23787524000000004,0.5106791 0.45523315999999986,1.3936888200000004 0.3514854600000002,1.92140194 c1.0934147,-0.59505692 3.03209654,-1.71066912 4.1893171,-1.98038582 c-0.8246132199999999,-0.59840362 -2.04796184,-1.2161361400000001 -3.11177532,-1.00108676 zm0.21459860000000006,15.18590396 c-0.2927747800000001,0.4091989600000001 -0.91571176,-0.03652684000000001 -0.6229506400000002,-0.4456984800000001 c0.13639510000000005,-0.19051602000000006 0.28060372,-0.3717705600000002 0.4311232600000001,-0.5446788400000002 c-0.51424436,0.21510402 -1.0382692800000002,0.4449608400000002 -1.58587136,0.55906282 c0.3000555600000001,0.20932584 0.5624914799999999,0.4704640600000002 0.75023452,0.8311290400000003 c1.9715887799999996,3.78745356 3.9772592600000003,3.2670348799999998 6.042637600000001,2.73113942 c0.6886689000000003,-0.17870012000000005 1.3833345400000001,-0.3588618600000002 2.09627726,-0.4103464000000001 l-1.80344784,-1.7681504000000001 c-0.4225447800000001,0.3542038 -0.91920872,0.8847445400000004 -1.0078621200000002,1.44872496 c-0.07806690000000004,0.4972649800000002 -0.8341888799999999,0.37860056000000025 -0.7561219800000002,-0.11870540000000007 c0.13772012,-0.8759338400000003 0.8528621000000001,-1.6124400600000004 1.5334032999999998,-2.12578286 c1.34176716,-1.0121377 2.9735634400000004,-2.42361184 3.8821583399999997,-3.84664234 c0.6669358400000005,-1.0445119 0.2779946600000001,-2.37061104 -1.09453482,-2.1749452000000002 c-0.6020098600000002,0.08582578000000006 -1.0850684400000001,0.5473971799999998 -1.5669795800000001,0.9226237199999999 c-1.2164913,0.9472663599999999 -2.47511004,1.7301073 -3.67714906,2.5747870600000002 c-0.9799137599999999,0.6886006000000005 -1.91373868,1.3798102600000004 -2.6209168800000002,2.3674829 zm5.8276292000000005,-5.547735800000001 c1.04209408,-0.8113630199999998 2.64606494,-1.8937814199999998 3.0254441200000004,-3.2274482 c0.18822114000000004,-0.6616084400000004 0.07608620000000003,-1.34555098 -0.6740253800000002,-1.6951786800000006 c-1.0919804,-0.5089716000000003 -2.63554674,0.2909033600000001 -3.5364783799999997,0.9323496400000002 c-2.7547439000000002,1.9610569199999999 -5.924642520000001,4.1993572 -9.07267148,5.18455738 c-0.4274214000000001,1.1332336 -0.11188906,2.45309012 1.04210774,3.0517123 c1.1056404,0.33592672000000023 1.8489493000000001,0.04514630000000003 2.81196564,-0.3582744800000001 c1.03940306,-0.43538518000000026 1.92371048,-0.8729423000000002 2.75328228,-1.35251758 c1.22811596,-0.7099375200000001 2.3363244400000003,-1.5119707599999999 3.6503754600000002,-2.53520038 zm2.50733398,-1.08045136 c1.77407884,0.21502206000000001 2.13029066,2.00128562 1.2694921000000001,3.3494866400000003 c-0.8901402400000002,1.39415326 -2.385036,2.73806504 -3.6854953200000002,3.7556804 l2.41429572,2.3670457799999998 c0.00579184,0.005327400000000002 0.011419760000000003,0.010846040000000008 0.016842779999999995,0.016514940000000013 l1.16291678,1.14015922 c0.3564303800000001,0.29139512 0.85208348,0.32696576000000027 1.4058325600000001,0.18451928000000012 c1.09315516,-0.46733592 2.17601068,-1.17559326 3.0688556,-2.11034706 c0.5477523400000001,-0.57347412 2.0956489,-2.45157386 1.18977234,-3.3678183600000002 l-5.97043084,-6.387211100000001 c-0.24377636000000008,0.3852803000000002 -0.5480801799999998,0.7325994600000002 -0.8720817200000002,1.05197026 zm-2.8452140800000003,-5.4788211 c0.012389620000000004,-1.2262308800000001 -1.26917792,-1.5746974800000002 -2.29048148,-1.35605552 c-1.2885341399999999,0.2758637000000001 -3.0423415400000002,1.25749862 -4.26545794,1.9830222000000002 c-0.7484723799999997,0.4440046400000002 -1.23031522,0.92363456 -1.9090942800000001,1.3444308600000001 c-1.85233698,1.0903548600000001 -4.58772466,1.2929053400000001 -5.13733476,2.07362898 c-0.7065361799999998,1.00364118 0.13002954,3.3882127399999997 1.99481078,3.26642018 c3.19463688,-0.1972640600000001 7.6049318,-3.32917422 10.3145977,-5.37443138 c0.63271754,-0.4775809200000002 1.28436784,-1.0899997000000001 1.29295998,-1.93701532 zm-13.22983294,2.90188942 c1.3827335,-0.36102014000000016 3.15052874,-0.8319486400000002 4.36070912,-1.58218316 c1.3130265200000002,-0.81398574 1.5778666000000001,-1.5627996199999998 1.066846,-2.97930064 c-1.3953143600000004,0.6810466200000004 -3.50258792,1.2062872800000002 -4.90436346,0.24863932000000008 c-0.23936417999999998,-0.16357850000000004 -0.1284723,-0.13429146000000006 -0.4356993600000001,-0.08749230000000004 c-0.6491641800000001,0.09899402000000009 -1.2875916,0.27376006 -1.8996005800000004,0.5211836400000001 c-4.16173756,1.68248854 -2.15919522,4.91600178 1.81210828,3.87915314 zm-0.18757912000000004,-5.13262206 c-0.4985763400000001,-1.0856968 0.19268796000000007,-2.20029816 0.9993519399999998,-2.92104074 c1.16238404,-1.03855614 1.72889156,-1.87301822 2.1997927400000004,-2.56665936 c0.3880669400000002,-0.5716300200000003 0.71575668,-1.05422416 1.2474995,-1.49574268 l-0.4259871000000002,-0.4108654800000001 l-6.4349254799999995,6.26636108 l1.3907246,1.3635002200000002 c0.33716978000000025,-0.0980651400000001 0.6790249400000002,-0.17671942000000013 1.0235438000000001,-0.23555304000000005 zm30.960758820000002,10.23786948 c-0.12543978000000006,0.27477090000000015 -0.5431899,0.08404998000000002 -0.4177637800000001,-0.19070726000000013 c0.3690932,-0.8063361399999998 0.45144934000000003,-1.8508617 0.46412582,-2.72958218 c0.003811140000000003,-0.3027875600000001 0.4642760800000001,-0.29702304 0.46045128,0.005846480000000004 c-0.013632680000000008,0.9466380000000002 -0.10932098000000003,2.04611774 -0.5068133199999998,2.9144429599999997 zm-1.7158599200000002,1.0501125 c-0.14355294000000007,0.26604215999999997 -0.54859926,0.047509480000000014 -0.40504632,-0.21856000000000006 c0.84455682,-1.56747134 1.04863722,-2.8923684 1.01525218,-4.64292472 c-0.006816340000000003,-0.30213188 0.45263776,-0.3125408000000001 0.45945410000000014,-0.010326960000000005 c0.03487398000000002,1.8286505400000004 -0.18796160000000006,3.2354393000000004 -1.0696599599999999,4.87181168 zm-9.540389880000001,7.74306172 l0.6498608400000002,0.6360915600000002 c0.34596682000000023,0.3386314 1.09972562,0.053205700000000015 1.8725128,-0.4902027600000001 c0.6828360800000002,-0.48012168000000016 1.32982832,-1.12966834 1.80078414,-1.8192114799999999 c0.49878124,-0.7303455600000002 0.7503574599999999,-1.4251478 0.43481146000000026,-1.7371012200000004 l-0.6237429200000002,-0.61665338 c-0.7083802800000001,1.63293006 -2.5139454199999998,3.33944654 -4.13422632,4.02707728 zm-41.2490337,-34.45450872 c2.96156996,-4.34584704 7.5522861599999995,-9.40112618 12.370441360000001,-11.67700512 c-0.32107830000000026,-0.3720027800000002 -0.6487680400000002,-0.7415057800000001 -0.9811021799999996,-1.10654196 c-2.0724132400000004,0.9761572599999998 -4.52065406,2.8052585800000003 -6.7681202,4.8976564 c-2.3815527000000003,2.21725022 -4.52949208,4.72289036 -5.76053128,6.8179792 c0.38253464000000015,0.3716612800000001 0.76371694,0.7285287800000001 1.1393123,1.06791148 zm3.3261963399999996,5.0235879400000005 l11.75761278,12.142701839999999 l14.8045714,-14.416777660000001 c0.8054619,-0.8775457200000002 0.75023452,-1.4988161800000004 -0.0788182,-2.32446756 l-0.006461180000000006,-0.007116860000000002 l-9.31293722,-9.767869860000001 l-0.000983520000000001,0.000983520000000001 c-0.9468702200000002,-0.94937 -1.6562750000000004,-0.77271888 -2.57672678,0.14021990000000006 l-0.0013933200000000008,0.0015845600000000018 l-14.58486396,14.23074212 zm-1.2502178400000001,2.2639947400000002 l10.793353380000001,11.18279998 c0.3209690200000001,0.3318014000000002 0.5161567599999998,0.40415842 0.8481084200000002,0.05494052000000003 l0.007116860000000002,-0.006433860000000002 l0.8125377799999999,-0.81552932 l-11.756479,-12.14152708 l-0.7126012200000001,0.7363286400000002 l-0.001502600000000001,0.00009562000000000009 c-0.3565396600000001,0.36429854 -0.3104371600000001,0.6578929200000002 0.009466380000000003,0.9893255 z" style="fill: #000000; fill-rule: nonzero;" stroke-width="0" id="svg_4"/>
    </g>
  </g><g id="SvgjsG3964" featurekey="nameRightFeature-0" fill="#114084" class="">
    <path d="M184.00000238881103,47.21463717456626 l0,-34.379267999999996 l4.4693048399999995,0 l6.875853599999999,19.743522479999996 l0,-19.743522479999996 l4.61664456,0 l0,34.379267999999996 l-4.4201916,0 l-6.92496684,-19.841748959999997 l0,19.841748959999997 l-4.61664456,0 zM209.11528549381103,26.832642574566265 l5.10777696,0 l0,4.6657578 l-5.10777696,0 l0,11.050479 l7.5143257199999995,0 l0,4.6657578 l-12.13097028,0 l0,-34.379267999999996 l12.13097028,0 l0,4.6657578 l-7.5143257199999995,0 l0,9.3315156 zM225.29195891881102,12.835369174566267 l1.37517072,23.03410956 l4.07639892,-23.03410956 l4.07639892,0 l4.07639892,23.03410956 l1.37517072,-23.03410956 l4.61664456,0 l-2.01364284,34.379267999999996 l-6.7285138799999995,0 l-3.38881356,-21.46248588 l-3.33970032,21.46248588 l-6.7285138799999995,0 l-2.01364284,-34.379267999999996 l4.61664456,0 zM253.45226290381106,36.80263029456627 q-0.04911324000000003,0.29467944 -0.04911324000000003,0.58935888 l0,0.5402456400000002 q0,1.4242839600000001 0.3437926800000002,2.4802186199999996 t0.88403832,1.7435200199999998 t1.2032743799999999,1.00682142 t1.3506141,0.3192360600000001 q1.12960452,0 2.01364284,-0.8594817 t0.88403832,-2.43110538 q0,-1.5225104399999996 -1.08049128,-3.6098231399999996 t-3.8308327199999996,-4.69031442 q-1.17871776,-1.12960452 -2.3328789000000003,-2.30832228 t-2.06275608,-2.50477524 t-1.5225104399999996,-2.8731245399999996 t-0.7612552200000002,-3.4133701800000003 q0,-0.19645296000000007 -0.024556620000000008,-0.36834930000000016 t-0.024556620000000008,-0.36834930000000016 q0,-1.9154163599999994 0.68758536,-3.4133701800000003 t1.7926332600000001,-2.5293318599999997 t2.5293318599999997,-1.57162368 t2.8976811599999994,-0.5402456400000002 q1.5225104399999996,0 2.9959076399999995,0.58935888 t2.6275583399999998,1.81718988 t1.8663031199999998,3.11869074 t0.7121419800000003,4.44474822 l0,0.6139155000000002 t-0.04911324000000003,0.6630287400000002 l-4.6657578,0 q0.04911324000000003,-0.3437926800000002 0.04911324000000003,-0.6630287400000002 l0,-0.6139155000000002 q0,-2.8976811599999994 -1.1050479,-4.15006878 t-2.43110538,-1.25238762 q-1.27694424,0 -2.25920904,0.9577081799999999 t-0.9822647999999995,2.6766715800000007 l0,0.29467944 q0.0982264800000001,1.17871776 0.56480226,2.25920904 t1.2032743799999999,2.06275608 t1.64529354,1.9154163599999994 t1.8908597399999998,1.81718988 q3.58526652,3.4379267999999996 5.058663719999999,6.409277819999999 t1.4733971999999997,5.377899779999999 q0,1.7680766399999999 -0.68758536,3.1923605999999998 t-1.81718988,2.43110538 t-2.5784450999999997,1.5225104399999996 t-2.9713510199999997,0.51568902 t-2.9959076399999995,-0.56480226 t-2.60300172,-1.7680766399999999 t-1.8417464999999997,-3.0695775 t-0.7121419800000003,-4.4693048399999995 l0,-0.6630287400000002 t0.04911324000000003,-0.6630287400000002 l4.6657578,0 z" stroke-width="0" id="svg_5"/>
  </g></g></svg>
