<svg xmlns="http://www.w3.org/2000/svg" xmlns:xlink="http://www.w3.org/1999/xlink" 
style="/* margin:auto; */background:#20262e;display:block;z-index:1;position:relative"
width="2048"
height="1002"
preserveAspectRatio="xMidYMid"
viewBox="0 0 2048 1002">
<g transform="translate(1024,501) scale(1,1) translate(-1024,-501)"><g transform="translate(1590.3831128708948,61.66822394154656) scale(100)" opacity="0.4">
  <path d="M6.952959999999999 0 C6.952959999999999 1.6486399999999997 7.218220197156661 2.2637558783048224 6.393900197156662 3.6915199999999992 S4.904244121695177 5.19711999149705 3.4764800000000005 6.02143999149705 S1.64864 7.383039999999999 4.520808151988437e-16 7.383039999999999 S-2.0487158783048214 6.845759991497049 -3.4764799999999982 6.02143999149705 S-5.56958019715666 5.119284121695179 -6.39390019715666 3.6915200000000024 S-6.952959999999999 1.6486400000000005 -6.952959999999999 8.51492020859958e-16 S-7.218220197156662 -2.2637558783048206 -6.393900197156663 -3.6915199999999975 S-4.904244121695179 -5.197119991497049 -3.4764800000000027 -6.021439991497049 S-1.648640000000001 -7.383039999999999 -1.356242445596531e-15 -7.383039999999999 S2.048715878304818 -6.845759991497051 3.476479999999995 -6.0214399914970524 S5.569580197156659 -5.119284121695179 6.393900197156659 -3.691520000000003 S6.952959999999999 -1.6486400000000014 6.952959999999999 -1.702984041719916e-15" fill="#93DBE9" stroke-width="0px">
    <animateTransform attributeName="transform" type="rotate" dur="10s" repeatCount="indefinite" values="0;60" fill="#93DBE9" stroke-width="0px"></animateTransform>
  </path>
</g><g transform="translate(1703.6597354450737,-26.19813127014413) scale(100)" opacity="0.4">
  <path d="M8.343551999999999 0 C8.343551999999999 1.9783679999999997 8.661864236587995 2.716507053965787 7.672680236587995 4.429823999999999 S5.885092946034212 6.236543989796459 4.171776 7.225727989796459 S1.9783680000000001 8.859648 5.424969782386124e-16 8.859648 S-2.4584590539657856 8.214911989796459 -4.171775999999998 7.22572798979646 S-6.683496236587992 6.143140946034214 -7.6726802365879925 4.429824000000003 S-8.343551999999999 1.9783680000000008 -8.343551999999999 1.0217904250319496e-15 S-8.661864236587995 -2.7165070539657847 -7.672680236587996 -4.429823999999997 S-5.885092946034215 -6.236543989796457 -4.171776000000003 -7.225727989796458 S-1.9783680000000012 -8.859648 -1.6274909347158373e-15 -8.859648 S2.4584590539657816 -8.214911989796462 4.171775999999994 -7.2257279897964635 S6.683496236587991 -6.143140946034215 7.672680236587992 -4.4298240000000035 S8.343551999999999 -1.9783680000000017 8.343551999999999 -2.043580850063899e-15" fill="#79BCD8" stroke-width="0px">
    <animateTransform attributeName="transform" type="rotate" dur="5s" repeatCount="indefinite" values="0;60" fill="#79BCD8" stroke-width="0px"></animateTransform>
  </path>
</g><g transform="translate(1975.5236296231033,-237.0773837782018) scale(100)" opacity="0.4">
  <path d="M11.6809728 0 C11.6809728 2.7697152 12.126609931223193 3.803109875552102 10.741752331223193 6.201753599999999 S8.239130124447897 8.731161585715043 5.8404864000000005 10.116019185715043 S2.7697152000000007 12.4035072 7.594957695340574e-16 12.4035072 S-3.4418426755521 11.500876785715043 -5.840486399999997 10.116019185715045 S-9.35689473122319 8.6003973244479 -10.74175233122319 6.201753600000004 S-11.6809728 2.769715200000001 -11.6809728 1.4305065950447295e-15 S-12.126609931223193 -3.803109875552099 -10.741752331223195 -6.201753599999996 S-8.239130124447902 -8.731161585715041 -5.840486400000005 -10.116019185715043 S-2.769715200000002 -12.4035072 -2.278487308602172e-15 -12.4035072 S3.4418426755520937 -11.500876785715047 5.840486399999992 -10.116019185715048 S9.356894731223187 -8.6003973244479 10.74175233122319 -6.201753600000005 S11.6809728 -2.7697152000000025 11.6809728 -2.861013190089459e-15" fill="#689CC5" stroke-width="0px">
    <animateTransform attributeName="transform" type="rotate" dur="3.3333333333333335s" repeatCount="indefinite" values="0;60" fill="#689CC5" stroke-width="0px"></animateTransform>
  </path>
</g></g>
</svg>